<svg width="59" height="120" viewBox="0 0 59 120" fill="none" xmlns="http://www.w3.org/2000/svg">
<path d="M56.087 6.52174H54.7826V3.91304C54.7826 3.13043 54.2609 2.6087 53.4783 2.6087C52.6956 2.6087 52.1739 3.13043 52.1739 3.91304V6.52174H31.3043V1.30435C31.3043 0.521739 30.7826 0 30 0C29.2174 0 28.6957 0.521739 28.6957 1.30435V6.52174H6.52174V3.91304C6.52174 3.13043 6 2.6087 5.21739 2.6087C4.43478 2.6087 3.91304 3.13043 3.91304 3.91304V6.52174H2.6087C1.17391 6.52174 0 7.69565 0 9.13043V11.7391C0 13.1739 1.17391 14.3478 2.6087 14.3478H14.3478V18.2609C14.3478 19.0435 14.8696 19.5652 15.6522 19.5652H24.7826V23.9185L11.3478 27.5217C9.26087 28.1739 8.08696 30.2609 8.6087 32.3478C9.13043 34.0435 10.5652 35.2174 12.3913 35.2174C12.6522 35.2174 13.0435 35.2174 13.4348 35.087L14.0513 34.9216L23.2174 36C23.4783 36 23.7391 35.8696 24 35.4783C24.1304 35.087 23.8696 34.6957 23.4783 34.6957L17.5114 33.9935L24.7826 32.0434V36.962L11.3478 40.5652C9.26087 41.2174 8.08696 43.3043 8.6087 45.3913C9.13043 47.087 10.5652 48.2609 12.3913 48.2609C12.6522 48.2609 13.0435 48.2609 13.4348 48.1304L14.0513 47.9651L23.2174 49.0435C23.4783 49.0435 23.7391 48.913 24 48.5217C24.1304 48.1304 23.8696 47.7391 23.4783 47.7391L17.5114 47.037L24.7826 45.0869V50.0054L11.3478 53.6087C9.26087 54.2609 8.08696 56.3478 8.6087 58.4348C9.13043 60.1304 10.5652 61.3043 12.3913 61.3043C12.6522 61.3043 13.0435 61.3043 13.4348 61.1739L19.5652 59.5297V63.7961L11.3478 66C9.26087 66.6522 8.08696 68.7391 8.6087 70.8261C8.89631 71.7605 9.46213 72.535 10.217 73.0435H9.13044C7.69565 73.0435 6.52174 74.2174 6.52174 75.6522V78.2609C6.52174 79.6957 7.69565 80.8696 9.13044 80.8696H16.9565V98.8696C16.9565 100.435 18 102 19.5652 102.522L20.087 102.783C20.4907 102.923 20.8973 103.052 21.3057 103.174H21.2609L24.694 110.632C23.935 111.606 23.4783 112.822 23.4783 114.13C23.4783 117.391 26.087 120 29.3478 120C32.4783 120 35.087 117.391 34.9565 114.13C34.9565 113.064 34.6534 112.059 34.1303 111.196L37.6956 103.174H37.2213C37.6383 103.052 38.0569 102.923 38.4785 102.783L39.2611 102.522C40.8263 102 41.8698 100.565 41.8698 98.8696V80.8696H49.5655C51.0003 80.8696 52.1742 79.6957 52.1742 78.2609V75.6522C52.1742 74.2174 51.0003 73.0435 49.5655 73.0435H39.1307V66.6736L47.4785 64.4348C49.5655 63.7826 50.7394 61.6957 50.2176 59.6087C49.6959 57.913 48.2611 56.7391 46.435 56.7391C46.0437 56.7391 45.7829 56.7391 45.3916 56.8696L39.1307 58.5487V54.2823L47.4785 52.0435C49.5655 51.3913 50.7394 49.3043 50.2176 47.2174C49.6959 45.5217 48.2611 44.3478 46.435 44.3478C46.0437 44.3478 45.6524 44.3478 45.3916 44.4783L43.4468 44.9997L35.8698 44.087C35.4785 43.9565 35.0872 44.2174 35.0872 44.6087C34.9568 45 35.2176 45.3913 35.6089 45.3913L40.0264 45.9171L33.9133 47.5567V42.6522H33.8611L47.4785 39C49.5655 38.3478 50.7394 36.2609 50.2176 34.1739C49.6959 32.4783 48.2611 31.3043 46.435 31.3043C46.0437 31.3043 45.6524 31.3043 45.3916 31.4348L43.4468 31.9563L35.8698 31.0435C35.4785 30.913 35.0872 31.1739 35.0872 31.5652C34.9568 31.9565 35.2176 32.3478 35.6089 32.3478L40.0264 32.8736L33.9133 34.5132V29.5947L47.4785 25.9565C49.5655 25.3043 50.7394 23.2174 50.2176 21.1304C49.6959 19.4348 48.2611 18.2609 46.435 18.2609C46.0437 18.2609 45.6524 18.2609 45.3916 18.3913L44.2836 18.6883C44.3224 18.5561 44.3481 18.4153 44.3481 18.2609V14.3478H56.0872C57.522 14.3478 58.6959 13.1739 58.6959 11.7391V9.13043C58.6957 7.69565 57.5217 6.52174 56.087 6.52174ZM29.3478 117.652C27.3913 117.652 25.8261 116.087 25.8261 114.13C25.8261 112.174 27.3913 110.609 29.3478 110.609C31.3043 110.609 32.8696 112.174 32.8696 114.13C32.8696 116.087 31.3043 117.652 29.3478 117.652ZM34.4348 103.957L32.0505 109.159C31.2106 108.673 30.2425 108.391 29.2174 108.391C28.3446 108.391 27.5126 108.595 26.7659 108.955L24.5217 103.957H24.6685C26.2174 104.217 27.7826 104.348 29.3478 104.348C30.8478 104.348 32.3478 104.217 33.8641 103.957H34.4348V103.957ZM27.3913 19.5652H31.3043V22.1693L27.3913 23.2189V19.5652V19.5652ZM15.3801 73.0435L19.5652 71.921V73.0435H15.3801ZM38.3478 100.043L37.5652 100.304C32.2174 102.13 26.3478 102.13 21 100.174L20.4783 100.043C19.9565 99.913 19.5652 99.3913 19.5652 98.8696V93.014C19.6503 93.0555 19.7372 93.0948 19.8261 93.1304L20.3478 93.2609C23.2174 94.3043 26.2174 94.8261 29.3478 94.8261C32.2174 94.8261 35.2174 94.3044 38.087 93.3913L38.8696 93.1304C39.0048 93.0764 39.1348 93.0138 39.2609 92.946V98.8696C39.2609 99.3913 38.8696 99.913 38.3478 100.043ZM39.2609 91.3082C39.0499 91.5395 38.7852 91.7237 38.4783 91.8261L37.6956 92.087C32.2174 93.913 26.2174 93.913 20.7391 91.9565L20.2174 91.8261C19.9698 91.7435 19.7522 91.6047 19.5652 91.4343V80.8696H39.2609V91.3082ZM49.5652 78.2609H9.13044V75.6522H49.5652V78.2609ZM36.5217 73.0435H22.1739V71.2215L36.5217 67.3734V73.0435ZM46.0435 59.3478C46.1739 59.3478 46.3043 59.3478 46.4348 59.3478C46.9565 59.3478 47.4783 59.7391 47.6087 60.2609C47.7391 60.913 47.3478 61.6957 46.6957 61.8261L12.6522 70.9565C12 71.2174 11.2174 70.6957 11.087 70.0435C10.9565 69.3913 11.3478 68.6087 12 68.4783L46.0435 59.3478ZM36.5217 59.2485L22.1739 63.0966V58.8302L36.5217 54.9821V59.2485ZM47.6087 47.8696C47.7391 48.5217 47.3478 49.3043 46.6957 49.4348L12.6522 58.5652C12 58.8261 11.2174 58.3043 11.087 57.6522C10.9565 57 11.3478 56.2174 12 56.087L46.0435 46.9565C46.1739 46.9565 46.3043 46.9565 46.4348 46.9565C46.9565 46.9565 47.4783 47.3478 47.6087 47.8696ZM31.3043 48.2563L27.3913 49.3059V44.3873L31.3043 43.3377V48.2563ZM47.6087 34.8261C47.7391 35.4783 47.3478 36.2609 46.6957 36.3913L12.6522 45.5217C12 45.6522 11.2174 45.2609 11.087 44.6087C10.9565 43.9565 11.3478 43.1739 12 43.0435L46.0435 33.913C46.1739 33.913 46.3043 33.913 46.4348 33.913C46.9565 33.913 47.4783 34.3043 47.6087 34.8261ZM31.3043 35.2128L27.3913 36.2624V31.3438L31.3043 30.2942V35.2128ZM46.0435 20.8696C46.1739 20.8696 46.3043 20.8696 46.4348 20.8696C46.9565 20.8696 47.4783 21.2609 47.6087 21.7826C47.7391 22.4348 47.3478 23.2174 46.6957 23.3478L12.6522 32.4783C12 32.7391 11.2174 32.2174 11.087 31.5652C10.9565 30.913 11.3478 30.1304 12 30L46.0435 20.8696ZM33.913 21.4698V19.5652H41.0144L33.913 21.4698ZM41.7391 16.9565H16.9565V14.3478H41.7391V16.9565ZM56.087 11.7391H43.0435H15.6522H2.6087V9.13043H56.087V11.7391Z" fill="#FFB800"/>
</svg>
