<svg width="120" height="120" viewBox="0 0 120 120" fill="none" xmlns="http://www.w3.org/2000/svg">
<path d="M60 0C26.863 0 0 26.863 0 60C0 93.137 26.863 120 60 120C93.137 120 120 93.137 120 60C119.962 26.8785 93.1215 0.0375 60 0ZM113.832 75.388L110.074 74.166L108.836 77.966L112.61 79.192C111.049 83.4498 108.977 87.5023 106.438 91.26L103.238 88.94L100.886 92.176L104.062 94.484C101.267 98.0515 98.0532 101.27 94.49 104.07L92.182 100.894L88.946 103.246L91.266 106.446C87.5085 108.982 83.4567 111.052 79.2 112.61L77.974 108.836L74.174 110.074L75.396 113.832C71.0338 115.081 66.535 115.792 62 115.95V112H58V115.95C53.4678 115.792 48.9717 115.081 44.612 113.832L45.834 110.074L42.034 108.836L40.8 112.61C36.5422 111.049 32.4898 108.977 28.732 106.438L31.052 103.238L27.816 100.886L25.508 104.062C21.9422 101.264 18.7258 98.0478 15.928 94.482L19.104 92.174L16.752 88.938L13.552 91.258C11.021 87.5023 8.95525 83.4535 7.4 79.2L11.174 77.974L9.936 74.174L6.178 75.396C4.9255 71.034 4.211 66.5353 4.05 62H8V58H4.05C4.20825 53.4678 4.9195 48.9717 6.168 44.612L9.926 45.834L11.164 42.034L7.4 40.8C8.961 36.5422 11.0335 32.4898 13.572 28.732L16.772 31.052L19.124 27.816L15.93 25.51C18.7278 21.9443 21.9443 18.7278 25.51 15.93L27.818 19.106L31.054 16.754L28.734 13.554C32.492 11.0217 36.5437 8.95525 40.8 7.4L42.026 11.174L45.826 9.936L44.604 6.178C48.966 4.9255 53.4647 4.211 58 4.05V8H62V4.05C66.5322 4.20825 71.0283 4.9195 75.388 6.168L74.166 9.926L77.966 11.164L79.2 7.4C83.4577 8.961 87.5102 11.0335 91.268 13.572L88.948 16.772L92.184 19.124L94.492 15.948C98.0577 18.7457 101.274 21.9622 104.072 25.528L100.896 27.836L103.248 31.072L106.448 28.752C108.982 32.504 111.051 36.5495 112.61 40.8L108.836 42.026L110.074 45.826L113.832 44.604C115.081 48.9662 115.792 53.465 115.95 58H112V62H115.95C115.792 66.5322 115.081 71.0283 113.832 75.388Z" fill="#FFB800"/>
<path d="M60.0001 16C35.6996 16 16.0001 35.6995 16.0001 60C16.0001 84.3005 35.6996 104 60.0001 104C84.3006 104 104 84.3005 104 60C103.973 35.711 84.2891 16.0275 60.0001 16ZM60.0001 100C37.9086 100 20.0001 82.0915 20.0001 60C20.0001 37.9085 37.9086 20 60.0001 20C82.0916 20 100 37.9085 100 60C99.9748 82.0807 82.0811 99.9747 60.0001 100Z" fill="#FFB800"/>
<path d="M59.9999 26C41.2222 26 25.9999 41.2223 25.9999 60C25.9999 78.7778 41.2222 94 59.9999 94C78.7777 94 93.9999 78.7778 93.9999 60C93.9789 41.231 78.7689 26.021 59.9999 26ZM85.7179 44.634C88.0432 48.494 89.4609 52.8318 89.8639 57.32L77.3379 56.308C76.2372 56.2155 75.4199 55.248 75.5127 54.1475C75.5567 53.6258 75.8034 53.142 76.1999 52.8L85.7179 44.634ZM66.6779 30.776L61.8459 42.376C61.4209 43.3955 60.2499 43.8775 59.2304 43.4525C58.7437 43.2495 58.3569 42.8628 58.1539 42.376L53.3219 30.776C57.7139 29.7412 62.2859 29.7412 66.6779 30.776ZM34.2819 44.6335L43.7999 52.8C44.6387 53.5188 44.7357 54.7815 44.0169 55.62C43.6737 56.0205 43.1859 56.2693 42.6599 56.312L30.1339 57.324C30.5369 52.834 31.9554 48.4945 34.2819 44.6335ZM51.1239 75.348L48.2199 87.584C44.0822 85.7978 40.3979 83.1065 37.4379 79.708H37.4319L48.1359 73.178C49.0787 72.6023 50.3094 72.8998 50.8852 73.8425C51.1604 74.2933 51.2462 74.8343 51.1239 75.348ZM71.7799 87.584H71.7739L68.8639 75.348C68.6082 74.2735 69.2719 73.195 70.3464 72.9393C70.8602 72.817 71.4012 72.9028 71.8519 73.178L82.5559 79.708C79.5977 83.1058 75.9154 85.797 71.7799 87.584ZM73.9399 69.762C71.1112 68.036 67.4189 68.9298 65.6929 71.7585C64.8682 73.1103 64.6109 74.7335 64.9779 76.274L67.9779 88.89C62.7609 90.37 57.2349 90.37 52.0179 88.89H52.0139L55.0139 76.274C55.7804 73.0503 53.7884 69.8153 50.5644 69.0488C49.0247 68.6828 47.4029 68.9398 46.0519 69.764L34.9839 76.52C31.9954 72.0003 30.2959 66.7515 30.0679 61.338L42.9839 60.294C46.2864 60.0233 48.7442 57.1263 48.4734 53.8238C48.3442 52.249 47.5992 50.7888 46.3999 49.76L36.5599 41.32C39.9412 37.0895 44.4012 33.8498 49.4699 31.942L54.4539 43.908C55.7277 46.967 59.2402 48.4145 62.2994 47.1405C63.7614 46.5318 64.9232 45.3698 65.5319 43.908L70.5179 31.942C75.5862 33.8503 80.0462 37.09 83.4279 41.32L73.5999 49.76C71.0849 51.9178 70.7954 55.7058 72.9532 58.2205C73.9832 59.421 75.4454 60.166 77.0219 60.294L89.938 61.338C89.71 66.7515 88.0104 72.0003 85.0219 76.52L73.9399 69.762Z" fill="#FFB800"/>
<path d="M60.0001 52C55.5818 52 52.0001 55.5817 52.0001 60C52.0001 64.4183 55.5818 68 60.0001 68C64.4183 68 68.0001 64.4183 68.0001 60C68.0001 55.5817 64.4183 52 60.0001 52ZM60.0001 64C57.7908 64 56.0001 62.2092 56.0001 60C56.0001 57.7908 57.7908 56 60.0001 56C62.2093 56 64.0001 57.7908 64.0001 60C64.0001 62.2092 62.2093 64 60.0001 64Z" fill="#FFB800"/>
</svg>
