<svg width="27" height="30" viewBox="0 0 27 30" fill="none" xmlns="http://www.w3.org/2000/svg">
<path d="M17.3939 19.745C17.4523 19.6499 17.5106 19.5567 17.569 19.4599C20.1944 15.1133 21.5156 11.311 21.4967 8.15991C21.485 5.99198 20.6157 3.9168 19.0787 2.38782C17.5418 0.858835 15.4621 0.000367416 13.2941 1.1791e-07C11.1262 -0.00036718 9.04621 0.857395 7.50872 2.38586C5.97124 3.91432 5.10125 5.9892 5.08885 8.15713C5.06965 11.311 6.39108 15.1138 9.0165 19.4599C9.07487 19.5567 9.13325 19.6499 9.19163 19.745C3.66432 20.428 0 22.4035 0 24.7489C0 27.6935 5.83764 30 13.2926 30C20.7476 30 26.5853 27.6935 26.5853 24.7489C26.5853 22.4035 22.9209 20.428 17.3939 19.745V19.745ZM5.97334 8.15991C5.96786 7.19509 6.15318 6.23871 6.51865 5.34577C6.88411 4.45283 7.42251 3.64096 8.10287 2.95685C8.78324 2.27274 9.59214 1.72989 10.4831 1.35953C11.374 0.989161 12.3293 0.79859 13.2942 0.798773C14.259 0.798956 15.2143 0.98989 16.105 1.36059C16.9958 1.7313 17.8045 2.27445 18.4846 2.95882C19.1647 3.64319 19.7028 4.45527 20.0679 5.34834C20.4331 6.24142 20.618 7.19787 20.6122 8.16269C20.6501 14.4446 14.7771 22.1925 13.2926 24.0504C11.8082 22.1925 5.93493 14.4443 5.97334 8.15991V8.15991ZM13.2926 29.1155C5.87024 29.1155 0.884491 26.8575 0.884491 24.7489C0.884491 22.8788 4.58141 21.1389 9.71272 20.5746C10.7051 22.1242 11.788 23.6139 12.9558 25.036C12.9972 25.0849 13.0488 25.1241 13.107 25.1511C13.1652 25.178 13.2285 25.192 13.2926 25.192C13.3567 25.192 13.4201 25.178 13.4782 25.1511C13.5364 25.1241 13.588 25.0849 13.6295 25.036C14.7973 23.6139 15.8803 22.1242 16.8728 20.5746C22.0028 21.1389 25.701 22.8778 25.701 24.7489C25.7008 26.8575 20.715 29.1155 13.2926 29.1155Z" fill="#FFB800"/>
<path d="M9.67705 26.554C7.71449 26.3028 6.13908 25.8606 5.24246 25.3094C5.19298 25.2778 5.13769 25.2563 5.07983 25.2463C5.02196 25.2363 4.96268 25.2379 4.90544 25.251C4.8482 25.2641 4.79414 25.2885 4.74643 25.3227C4.69871 25.357 4.65829 25.4004 4.62753 25.4504C4.59677 25.5004 4.57628 25.5561 4.56726 25.6141C4.55824 25.6721 4.56087 25.7314 4.57499 25.7884C4.58911 25.8454 4.61444 25.899 4.64951 25.9461C4.68458 25.9932 4.72868 26.0329 4.77924 26.0628C5.78074 26.6784 7.48047 27.1646 9.56484 27.4312C9.58361 27.4336 9.60252 27.4348 9.62145 27.4347C9.73355 27.4342 9.84125 27.3911 9.92279 27.3142C10.0043 27.2373 10.0536 27.1322 10.0607 27.0204C10.0677 26.9085 10.032 26.7981 9.96083 26.7115C9.88962 26.625 9.78818 26.5687 9.67705 26.554V26.554Z" fill="#FFB800"/>
<path d="M14.035 26.7653C13.4186 26.7794 12.7767 26.7762 12.1503 26.7532C12.0922 26.751 12.0342 26.7603 11.9798 26.7806C11.9253 26.8008 11.8753 26.8316 11.8328 26.8712C11.7902 26.9107 11.7558 26.9583 11.7316 27.0111C11.7074 27.0639 11.6938 27.121 11.6917 27.1791C11.6896 27.2372 11.6989 27.2951 11.7191 27.3496C11.7394 27.4041 11.7702 27.454 11.8097 27.4966C11.8493 27.5392 11.8968 27.5735 11.9497 27.5978C12.0025 27.622 12.0596 27.6355 12.1177 27.6377C12.5063 27.6518 12.9011 27.6591 13.2923 27.6591C13.5495 27.6591 13.804 27.6561 14.0557 27.65C14.173 27.6473 14.2843 27.5981 14.3653 27.5133C14.4463 27.4285 14.4903 27.3149 14.4876 27.1977C14.487 27.1394 14.4747 27.0817 14.4515 27.0282C14.4283 26.9747 14.3946 26.9264 14.3524 26.8861C14.3102 26.8458 14.2604 26.8144 14.2059 26.7936C14.1514 26.7729 14.0933 26.7632 14.035 26.7653V26.7653Z" fill="#FFB800"/>
<path d="M17.0268 8.15991C17.0267 7.42129 16.8075 6.69929 16.3971 6.0852C15.9867 5.47112 15.4034 4.99253 14.7209 4.70995C14.0385 4.42738 13.2876 4.35351 12.5632 4.49768C11.8388 4.64186 11.1734 4.99761 10.6512 5.51994C10.129 6.04228 9.77334 6.70774 9.62931 7.43218C9.48528 8.15662 9.5593 8.9075 9.84202 9.58987C10.1247 10.2722 10.6034 10.8554 11.2176 11.2658C11.8318 11.6761 12.5538 11.895 13.2924 11.895C14.2826 11.8938 15.2319 11.4999 15.9319 10.7996C16.632 10.0994 17.0258 9.15007 17.0268 8.15991V8.15991ZM10.4424 8.15991C10.4425 7.59624 10.6097 7.04525 10.9229 6.57663C11.2362 6.108 11.6813 5.74278 12.2021 5.52714C12.7229 5.3115 13.2959 5.25513 13.8488 5.36516C14.4016 5.47519 14.9094 5.74667 15.3079 6.14528C15.7065 6.54389 15.9779 7.05173 16.0878 7.60458C16.1977 8.15743 16.1413 8.73046 15.9255 9.25121C15.7098 9.77197 15.3445 10.2171 14.8758 10.5302C14.4071 10.8434 13.8561 11.0105 13.2924 11.0105C12.5367 11.0097 11.8122 10.7091 11.2778 10.1747C10.7435 9.64023 10.443 8.91564 10.4424 8.15991V8.15991Z" fill="#FFB800"/>
</svg>
