<svg width="17" height="30" viewBox="0 0 17 30" fill="none" xmlns="http://www.w3.org/2000/svg">
<path d="M14.8054 0H2.18242C0.975225 0 0 0.979012 0 2.18621V27.8166C0 29.02 0.975225 30 2.18242 30H14.8054C16.0107 30 16.9897 29.021 16.9897 27.8166V2.18621C16.9888 0.979012 16.0107 0 14.8054 0ZM15.3527 24.3068H1.63705V3.68786H15.3527V24.3068ZM11.4205 2.2184H5.56825V1.58024H11.4215L11.4205 2.2184ZM13.9249 1.92678C13.9249 2.23544 13.673 2.4854 13.3653 2.4854C13.0567 2.4854 12.8057 2.2345 12.8057 1.92678C12.8057 1.61906 13.0567 1.36816 13.3653 1.36816C13.674 1.36721 13.9249 1.61812 13.9249 1.92678ZM11.1583 27.6708H5.82863V26.0309H11.1583V27.6708Z" fill="#FFB800"/>
</svg>
