<svg width="76" height="88" viewBox="0 0 76 88" fill="none" xmlns="http://www.w3.org/2000/svg">
<path d="M1 23.134L38 1L75 23.134V64.4124L38 87L1 64.4124V23.134Z" stroke="#FFB800"/>
<path d="M54.7905 26.8859H49.678C49.3544 26.8859 49.092 27.1482 49.092 27.4718C49.092 27.7954 49.3544 28.0577 49.678 28.0577H54.7905C55.1141 28.0577 55.3765 27.7954 55.3765 27.4718C55.3765 27.1482 55.1142 26.8859 54.7905 26.8859Z" fill="#FFB800"/>
<path d="M46.7747 28.0577H47.3979C47.7215 28.0577 47.9838 27.7954 47.9838 27.4718C47.9838 27.1482 47.7215 26.8859 47.3979 26.8859H46.7747C46.4511 26.8859 46.1888 27.1482 46.1888 27.4718C46.1888 27.7954 46.4511 28.0577 46.7747 28.0577Z" fill="#FFB800"/>
<path d="M46.7747 30.8102H54.7906C55.1142 30.8102 55.3766 30.5479 55.3766 30.2243C55.3766 29.9007 55.1142 29.6384 54.7906 29.6384H46.7747C46.4511 29.6384 46.1888 29.9007 46.1888 30.2243C46.1888 30.5479 46.4511 30.8102 46.7747 30.8102Z" fill="#FFB800"/>
<path d="M48.894 58.6709C48.894 56.3303 48.1126 54.0341 46.6893 52.1789L46.7979 50.1785C46.8718 48.8168 45.7912 47.6648 44.4168 47.6648H38.0029C37.7078 47.4563 37.5288 47.1176 37.5288 46.7518V45.1158C38.5233 44.4727 39.2215 43.7392 39.7344 42.8664H40.8683C42.1801 42.8664 43.2473 41.7992 43.2473 40.4874V36.1115C43.2473 35.3734 42.8203 34.721 42.1818 34.4124V31.3413C42.1818 29.9431 41.0444 28.8056 39.6462 28.8056H39.5805C39.5405 28.8056 39.508 28.7731 39.508 28.7331C39.508 27.335 38.3705 26.1975 36.9724 26.1975H30.767C27.6868 26.1975 25.1808 28.7035 25.1808 31.7838V34.4123C24.5423 34.7209 24.1153 35.3734 24.1153 36.1114V38.3369C24.1153 39.3781 24.9624 40.2252 26.0037 40.2252H26.7601C26.9559 41.8812 27.7327 43.3935 28.9494 44.4449C29.2348 44.6917 29.5301 44.912 29.8337 45.1089V46.7517C29.8337 47.1164 29.6541 47.4552 29.3577 47.6647H22.946C21.5823 47.6647 20.4905 48.8061 20.565 50.1784L20.6736 52.1788C19.2502 54.0342 18.4688 56.3303 18.4688 58.6709V60.8778C18.1775 61.2043 18 61.6344 18 62.1053C18 63.1231 18.828 63.9511 19.8459 63.9511H47.517C48.5348 63.9511 49.3628 63.1231 49.3628 62.1053C49.3628 61.6344 49.1853 61.2043 48.894 60.8779V58.6709ZM47.7221 58.6709V60.2711C47.6547 60.2636 47.5863 60.2595 47.517 60.2595H46.2507L46.5814 54.1665C47.323 55.5439 47.7221 57.0957 47.7221 58.6709ZM42.0153 35.8254C42.0538 35.9135 42.0755 36.0102 42.0755 36.1116V38.337C42.0755 38.7321 41.7541 39.0535 41.3591 39.0535H40.6623V36.8447L41.0234 36.7189C41.4701 36.5633 41.8214 36.2352 42.0153 35.8254ZM38.1034 42.6143H36.6329C36.3959 42.6143 36.203 42.4215 36.203 42.1845C36.203 41.9474 36.3959 41.7546 36.6329 41.7546H38.1034C38.3404 41.7546 38.5332 41.9474 38.5332 42.1845C38.5332 42.4215 38.3404 42.6143 38.1034 42.6143ZM40.8684 41.6946H40.2762C40.4412 41.2242 40.5551 40.7313 40.6152 40.2254H41.3591C41.6126 40.2254 41.8545 40.1749 42.0755 40.0838V40.4876C42.0755 41.1531 41.534 41.6946 40.8684 41.6946ZM26.3528 31.7839C26.3528 29.3499 28.3331 27.3695 30.7672 27.3695H36.9726C37.7245 27.3695 38.3363 27.9813 38.3363 28.7333C38.3363 29.4195 38.8946 29.9777 39.5807 29.9777H39.6464C40.3984 29.9777 41.0101 30.5895 41.0101 31.3414V35.0885C41.0101 35.3243 40.8605 35.5348 40.6378 35.6124L39.4065 36.0412C39.3569 36.0584 39.3057 36.0226 39.3057 35.9692L39.308 33.6408C39.3151 31.9415 37.7239 30.4595 35.4945 31.1756C34.3733 31.5359 32.9857 31.5346 31.8682 31.1756C29.662 30.4665 28.0477 31.9222 28.0548 33.639L28.0575 35.9694C28.0575 36.0231 28.0052 36.0585 27.9567 36.0412L26.725 35.6123C26.5023 35.5348 26.3527 35.3242 26.3527 35.0884V31.7839H26.3528ZM25.2873 38.337V36.1115C25.2873 36.0102 25.3091 35.9134 25.3476 35.8253C25.5416 36.2352 25.8929 36.5633 26.3398 36.7189L26.7008 36.8446V39.0534H26.0039C25.6087 39.0535 25.2873 38.732 25.2873 38.337ZM27.8834 39.5486C27.8639 38.7783 27.8759 37.9606 27.8726 37.212C27.9087 37.2152 27.9448 37.217 27.981 37.217C28.6777 37.217 29.2305 36.6507 29.2294 35.9677L29.2266 33.6358C29.2227 32.6844 30.0761 31.8304 31.5097 32.2912C32.8684 32.7277 34.4988 32.7264 35.853 32.2912C37.2189 31.8524 38.1403 32.6249 38.1361 33.6377L38.1338 35.9678C38.1329 36.6941 38.7537 37.2759 39.4902 37.212V39.596C39.4732 40.1024 39.3898 40.5967 39.2484 41.0667C38.9574 40.7685 38.5519 40.5827 38.1034 40.5827H36.6329C35.7497 40.5827 35.0311 41.3012 35.0311 42.1844C35.0311 43.0676 35.7497 43.7861 36.6329 43.7861H37.3773C36.2951 44.6309 35.0644 45.0713 33.7121 45.0938C30.754 45.0701 27.968 42.8847 27.8834 39.5486ZM31.0059 46.7519V45.7267C31.8528 46.0774 32.7563 46.2591 33.7105 46.2658H33.7147C33.7177 46.2658 33.7208 46.2658 33.7238 46.2657C34.6528 46.2513 35.5323 46.0713 36.3572 45.7314V46.7518C36.3572 47.0717 36.4241 47.3814 36.5474 47.6648H30.8149C30.9386 47.3813 31.0059 47.0716 31.0059 46.7519ZM20.7814 54.1665L20.8739 55.8713C20.8915 56.1945 21.1683 56.443 21.4907 56.4246C21.8138 56.4071 22.0616 56.1309 22.0441 55.8078L21.7351 50.1151C21.6975 49.4226 22.247 48.8367 22.946 48.8367H44.4169C45.1107 48.8367 45.6656 49.4174 45.6278 50.1151L45.0772 60.2595H35.8891C36.001 59.5902 36.3024 58.9607 36.7667 58.4449L36.7835 58.4262C38.5571 56.442 38.0263 53.3391 35.7337 52.0365C35.1455 51.7023 34.3984 52.1191 34.3984 52.812V55.4706C34.3984 55.5924 34.2992 55.6915 34.1773 55.6915H33.1855C33.0636 55.6915 32.9645 55.5924 32.9645 55.4706V52.812C32.9645 52.1204 32.2185 51.7016 31.6291 52.0365C29.33 53.3427 28.8099 56.4467 30.5811 58.4281L30.5961 58.4449C31.0604 58.9606 31.3618 59.5902 31.4738 60.2595H22.2857L22.1917 58.5272C22.1742 58.2041 21.898 57.956 21.5749 57.9738C21.2518 57.9913 21.0041 58.2675 21.0216 58.5906L21.1121 60.2595H19.8459C19.7765 60.2595 19.7081 60.2637 19.6407 60.2711V58.6709C19.6407 57.0958 20.0398 55.5439 20.7814 54.1665ZM32.6577 60.2595C32.5378 59.2994 32.1263 58.3931 31.4672 57.6609L31.453 57.6451C30.3209 56.3787 30.4726 54.4203 31.7927 53.3402V55.4705C31.7927 56.2385 32.4175 56.8633 33.1855 56.8633H34.1774C34.9455 56.8633 35.5703 56.2384 35.5703 55.4705V53.3402C36.8816 54.4131 37.0496 56.3701 35.9084 57.6467L35.8958 57.6609C35.2366 58.3931 34.8251 59.2994 34.7052 60.2595H32.6577ZM47.517 62.7793H19.8459C19.4742 62.7793 19.1719 62.477 19.1719 62.1054C19.1719 61.7338 19.4742 61.4314 19.8459 61.4314H47.517C47.8886 61.4314 48.1909 61.7338 48.1909 62.1054C48.1909 62.477 47.8886 62.7793 47.517 62.7793Z" fill="#FFB800"/>
<path d="M57.4141 28.0099C57.7377 28.0099 58 27.7476 58 27.424V26.2899C58 25.0273 56.9727 24 55.71 24H45.8552C44.5925 24 43.5652 25.0273 43.5652 26.2899V31.2187C43.5652 32.4814 44.5925 33.5087 45.8552 33.5087C46.0809 33.5087 46.2645 33.6923 46.2645 33.9179V36.9659C46.2645 37.4062 46.5495 37.7809 46.9737 37.8983C47.4005 38.0164 47.8365 37.8387 48.0616 37.4634L50.3139 33.7074C50.3874 33.5848 50.522 33.5087 50.6649 33.5087H55.7101C56.9728 33.5087 58.0001 32.4814 58.0001 31.2187V30.1634C58.0001 29.8398 57.7377 29.5774 57.4141 29.5774C57.0905 29.5774 56.8282 29.8398 56.8282 30.1634V31.2187C56.8282 31.8352 56.3266 32.3368 55.7101 32.3368H50.6648C50.1125 32.3368 49.5929 32.6311 49.3088 33.1048L47.4362 36.2274V33.9179C47.4362 33.0461 46.727 32.3368 45.8552 32.3368C45.2386 32.3368 44.737 31.8352 44.737 31.2187V26.2899C44.737 25.6734 45.2386 25.1719 45.8552 25.1719H55.71C56.3266 25.1719 56.8281 25.6734 56.8281 26.2899V27.424C56.8281 27.7476 57.0905 28.0099 57.4141 28.0099Z" fill="#FFB800"/>
</svg>
