<svg width="76" height="88" viewBox="0 0 76 88" fill="none" xmlns="http://www.w3.org/2000/svg">
<path d="M1 23.134L38 1L75 23.134V64.4124L38 87L1 64.4124V23.134Z" stroke="#FFB800"/>
<path d="M56.1865 39.0209H49.9445C49.453 39.0216 48.9818 39.217 48.6342 39.5644C48.2866 39.9118 48.0908 40.3828 48.0898 40.8743V43.2269L42.5839 43.09C42.422 40.7672 41.5982 38.5394 40.21 36.6701L44.9232 30.902V32.0967C44.9237 32.5885 45.1193 33.0601 45.4671 33.4079C45.8149 33.7557 46.2865 33.9513 46.7783 33.9518H53.0199C53.5117 33.9512 53.9833 33.7556 54.331 33.4078C54.6788 33.06 54.8744 32.5885 54.875 32.0967V25.8547C54.8743 25.3629 54.6786 24.8915 54.3309 24.5438C53.9831 24.1961 53.5117 24.0006 53.0199 24H46.7783C46.2865 24.0005 45.815 24.196 45.4672 24.5437C45.1194 24.8914 44.9238 25.3629 44.9232 25.8547V28.5357L39.2262 35.5105C39.156 35.4373 39.088 35.362 39.0162 35.2902C37.8731 34.1463 36.5158 33.2388 35.0219 32.6197C33.528 32.0006 31.9267 31.6819 30.3095 31.6819C28.6924 31.6819 27.0911 32.0006 25.5972 32.6197C24.1033 33.2388 22.746 34.1463 21.6029 35.2902C19.6023 37.2975 18.3529 39.9318 18.0642 42.7511C17.7756 45.5704 18.4653 48.4032 20.0177 50.7743C20.4814 51.4683 21.0122 52.1151 21.6025 52.7051C21.8664 52.969 22.1299 53.2099 22.3865 53.4229L22.39 53.4259L22.3977 53.4323L22.4015 53.4349C22.7614 53.7422 23.1403 54.0266 23.5359 54.2865C25.7499 55.7344 28.3702 56.4336 31.0113 56.2809C33.6524 56.1283 36.1748 55.1321 38.2073 53.4387H38.2112L38.2193 53.4319H38.2214C38.4986 53.2049 38.7639 52.9638 39.0162 52.7094C39.1043 52.6213 39.1873 52.5298 39.2728 52.4395L44.9232 59.2927V62.1453C44.9238 62.6371 45.1194 63.1086 45.4672 63.4563C45.815 63.804 46.2865 63.9995 46.7783 64H53.0199C53.5117 63.9994 53.9831 63.8039 54.3309 63.4562C54.6786 63.1085 54.8743 62.6371 54.875 62.1453V55.8969C54.8744 55.4051 54.6788 54.9336 54.331 54.5858C53.9833 54.238 53.5117 54.0424 53.0199 54.0418H46.7783C46.2865 54.0423 45.8149 54.2379 45.4671 54.5857C45.1193 54.9335 44.9237 55.4051 44.9232 55.8969V56.9333L40.2493 51.2645C41.6768 49.3219 42.4967 47 42.6057 44.5918L48.0898 44.7282V47.1193C48.0902 47.6111 48.2858 48.0826 48.6335 48.4304C48.9812 48.7782 49.4527 48.9738 49.9445 48.9744H56.1865C56.6783 48.9738 57.1498 48.7782 57.4976 48.4304C57.8454 48.0826 58.041 47.6111 58.0416 47.1193V40.8743C58.0405 40.3828 57.8447 39.9117 57.497 39.5643C57.1493 39.2169 56.678 39.0215 56.1865 39.0209ZM46.4203 25.8547C46.4204 25.7598 46.4582 25.6688 46.5253 25.6018C46.5925 25.5347 46.6835 25.4971 46.7783 25.4971H53.0199C53.1148 25.4971 53.2058 25.5347 53.2729 25.6018C53.34 25.6688 53.3778 25.7598 53.3779 25.8547V32.0967C53.3779 32.1916 53.3402 32.2827 53.2731 32.3498C53.2059 32.417 53.1149 32.4547 53.0199 32.4547H46.7783C46.6834 32.4547 46.5923 32.417 46.5252 32.3498C46.458 32.2827 46.4203 32.1916 46.4203 32.0967V25.8547ZM46.4203 55.8969C46.4203 55.802 46.458 55.7109 46.5252 55.6438C46.5923 55.5766 46.6834 55.5389 46.7783 55.5389H53.0199C53.1149 55.5389 53.2059 55.5766 53.2731 55.6438C53.3402 55.7109 53.3779 55.802 53.3779 55.8969V62.1389C53.3778 62.2338 53.34 62.3247 53.2729 62.3918C53.2058 62.4588 53.1148 62.4965 53.0199 62.4965H46.7783C46.6835 62.4965 46.5925 62.4588 46.5253 62.3918C46.4582 62.3247 46.4204 62.2338 46.4203 62.1389V55.8969ZM24.3588 53.0353C24.1236 52.8805 23.8973 52.7184 23.683 52.5499C23.9235 51.3519 24.4844 50.2416 25.3061 49.3373C26.1278 48.433 27.1795 47.7686 28.349 47.4148C29.5186 47.0611 30.7622 47.0313 31.9473 47.3286C33.1325 47.6259 34.2148 48.2392 35.0788 49.1031C36.0252 50.0402 36.669 51.2394 36.9271 52.546C35.142 53.9218 32.9731 54.7081 30.721 54.7958C28.469 54.8835 26.2455 54.2682 24.3588 53.0353ZM30.3044 45.6278C29.7581 45.6278 29.2171 45.5202 28.7124 45.3111C28.2076 45.102 27.749 44.7956 27.3627 44.4093C26.9764 44.023 26.67 43.5643 26.4609 43.0596C26.2518 42.5549 26.1442 42.0139 26.1442 41.4676C26.1442 40.9212 26.2518 40.3803 26.4609 39.8755C26.67 39.3708 26.9764 38.9122 27.3627 38.5259C27.749 38.1396 28.2076 37.8331 28.7124 37.6241C29.2171 37.415 29.7581 37.3074 30.3044 37.3074C30.9797 37.3048 31.6455 37.4666 32.2443 37.7788C32.8432 38.0909 33.3571 38.5441 33.7417 39.0991C34.1263 39.6542 34.3701 40.2945 34.4521 40.9648C34.5341 41.6351 34.4518 42.3153 34.2122 42.9467C33.9061 43.7348 33.3694 44.4122 32.6722 44.8905C31.9751 45.3688 31.1499 45.6258 30.3044 45.6278ZM38.1816 51.4082C37.8138 50.2409 37.1913 49.1698 36.3591 48.2723C35.5269 47.3748 34.5058 46.6733 33.3696 46.2185C34.2082 45.6852 34.8909 44.9397 35.3485 44.0576C35.8061 43.1754 36.0223 42.1879 35.9752 41.1953C35.9282 40.2026 35.6195 39.24 35.0804 38.4051C34.5414 37.5702 33.7912 36.8927 32.9059 36.4412C32.1026 36.0233 31.2099 35.8068 30.3044 35.8103C29.0794 35.8047 27.8859 36.1974 26.9035 36.9292C25.9212 37.6611 25.2035 38.6925 24.8584 39.8678C24.5134 41.0432 24.5598 42.2989 24.9906 43.4456C25.4214 44.5923 26.2133 45.5679 27.2469 46.2253C26.1123 46.6809 25.0926 47.382 24.2611 48.2784C23.4296 49.1749 22.807 50.2443 22.4379 51.4099C22.0066 50.9554 21.6144 50.4653 21.2654 49.9449C19.9032 47.8623 19.2985 45.3746 19.5527 42.8991C19.8069 40.4236 20.9045 38.1107 22.6616 36.3484C24.6697 34.3406 27.3871 33.2033 30.2267 33.182C33.0663 33.1608 35.8004 34.2574 37.8384 36.2349C39.8763 38.2124 41.0547 40.9122 41.1189 43.7512C41.1831 46.5902 40.1281 49.3405 38.1816 51.4082ZM56.5445 47.1193C56.5445 47.1663 56.5352 47.2129 56.5172 47.2563C56.4992 47.2997 56.4729 47.3392 56.4396 47.3724C56.4064 47.4057 56.3669 47.4321 56.3235 47.4501C56.28 47.468 56.2335 47.4773 56.1865 47.4773H49.9445C49.8496 47.4772 49.7586 47.4394 49.6916 47.3723C49.6245 47.3052 49.5869 47.2142 49.5869 47.1193V40.8743C49.5869 40.7794 49.6245 40.6884 49.6916 40.6213C49.7586 40.5542 49.8496 40.5164 49.9445 40.5163H56.1865C56.2335 40.5163 56.28 40.5255 56.3235 40.5435C56.3669 40.5615 56.4064 40.5879 56.4396 40.6211C56.4729 40.6544 56.4992 40.6939 56.5172 40.7373C56.5352 40.7807 56.5445 40.8273 56.5445 40.8743V47.1193Z" fill="#FFB800"/>
<path d="M54.4054 42.1789L52.7042 43.88L51.726 42.9018C51.6569 42.8303 51.5743 42.7733 51.483 42.7341C51.3917 42.6949 51.2934 42.6742 51.194 42.6734C51.0947 42.6726 50.9961 42.6915 50.9041 42.7292C50.8121 42.7668 50.7286 42.8224 50.6583 42.8927C50.588 42.963 50.5325 43.0466 50.4948 43.1386C50.4572 43.2306 50.4383 43.3292 50.4392 43.4286C50.4401 43.528 50.4607 43.6262 50.5 43.7175C50.5392 43.8088 50.5963 43.8914 50.6678 43.9604L52.1751 45.4678C52.2446 45.5373 52.3271 45.5925 52.4178 45.6302C52.5086 45.6678 52.606 45.6872 52.7042 45.6872C52.8025 45.6872 52.8999 45.6678 52.9906 45.6302C53.0814 45.5925 53.1639 45.5373 53.2334 45.4678L55.464 43.2376C55.5335 43.1681 55.5887 43.0855 55.6263 42.9947C55.6639 42.9039 55.6833 42.8065 55.6833 42.7082C55.6833 42.6099 55.6639 42.5126 55.6263 42.4218C55.5887 42.3309 55.5335 42.2484 55.464 42.1789C55.3945 42.1094 55.312 42.0543 55.2212 42.0166C55.1303 41.979 55.033 41.9597 54.9347 41.9597C54.8364 41.9597 54.739 41.979 54.6482 42.0166C54.5574 42.0543 54.4749 42.1094 54.4054 42.1789Z" fill="#FFB800"/>
<path d="M49.0086 60.4887C49.078 60.5583 49.1605 60.6135 49.2513 60.6511C49.3421 60.6888 49.4394 60.7081 49.5377 60.7081C49.636 60.7081 49.7333 60.6888 49.8241 60.6511C49.9149 60.6135 49.9973 60.5583 50.0668 60.4887L52.2974 58.2585C52.4378 58.1181 52.5167 57.9277 52.5167 57.7292C52.5167 57.5306 52.4378 57.3402 52.2974 57.1998C52.1571 57.0595 51.9667 56.9806 51.7681 56.9806C51.5696 56.9806 51.3792 57.0595 51.2388 57.1998L49.5377 58.901L48.5599 57.9232C48.4195 57.7825 48.2291 57.7034 48.0304 57.7032C47.8318 57.703 47.6412 57.7818 47.5006 57.9221C47.36 58.0624 47.2808 58.2529 47.2806 58.4515C47.2804 58.6502 47.3592 58.8408 47.4995 58.9814L49.0086 60.4887Z" fill="#FFB800"/>
<path d="M49.0086 30.4468C49.1489 30.5871 49.3393 30.6659 49.5377 30.6659C49.7361 30.6659 49.9264 30.5871 50.0668 30.4468L52.2975 28.2162C52.369 28.1471 52.426 28.0645 52.4652 27.9732C52.5044 27.8818 52.525 27.7836 52.5259 27.6842C52.5267 27.5848 52.5077 27.4863 52.4701 27.3943C52.4324 27.3023 52.3768 27.2187 52.3065 27.1485C52.2362 27.0782 52.1527 27.0226 52.0607 26.985C51.9686 26.9474 51.8701 26.9285 51.7707 26.9294C51.6713 26.9302 51.5731 26.9509 51.4818 26.9902C51.3904 27.0294 51.3079 27.0864 51.2388 27.158L49.5377 28.8586L48.5599 27.8808C48.4903 27.8112 48.4077 27.756 48.3168 27.7183C48.2259 27.6806 48.1284 27.6611 48.03 27.6611C47.9316 27.6611 47.8341 27.6804 47.7432 27.718C47.6522 27.7557 47.5696 27.8108 47.4999 27.8804C47.4303 27.95 47.3751 28.0326 47.3374 28.1235C47.2997 28.2144 47.2803 28.3119 47.2802 28.4103C47.2802 28.5087 47.2995 28.6062 47.3371 28.6971C47.3748 28.7881 47.43 28.8707 47.4995 28.9403L49.0086 30.4468Z" fill="#FFB800"/>
</svg>
