<svg width="76" height="88" viewBox="0 0 76 88" fill="none" xmlns="http://www.w3.org/2000/svg">
<path d="M1 23.134L38 1L75 23.134V64.4124L38 87L1 64.4124V23.134Z" stroke="#FFB800"/>
<path d="M18.0881 27.6693L20.7558 32.3375C20.8458 32.4952 20.9964 32.6093 21.1725 32.6535L23.6613 33.2757L32.1974 41.8118L33.1406 40.8689L24.4709 32.1995C24.3856 32.1139 24.2786 32.0532 24.1615 32.0239L21.77 31.4239L19.4988 27.4471L21.446 25.4998L25.4245 27.7733L26.0248 30.1647C26.0539 30.2821 26.1148 30.3894 26.2001 30.4747L34.8698 39.1444L35.8127 38.2012L27.2766 29.6651L26.6544 27.1777C26.6102 27.0013 26.4961 26.8504 26.3383 26.7601L21.6699 24.0927C21.4096 23.9446 21.082 23.9885 20.8697 24.2L18.2023 26.8677C17.9877 27.0786 17.9411 27.4067 18.0881 27.6693Z" fill="#FFB800"/>
<path d="M45.8142 37.1434L31.1428 51.8151L30.1996 50.8719L44.8713 36.2005L45.8142 37.1434Z" fill="#FFB800"/>
<path d="M28.575 52.3341C28.4543 52.1333 28.2376 52.0107 28.0033 52.0107H24.0021C23.7681 52.0107 23.5511 52.1333 23.4306 52.3341L21.4299 55.6685C21.3028 55.8797 21.3028 56.1439 21.4299 56.3554L23.4306 59.6897C23.5511 59.8903 23.7681 60.0132 24.0021 60.0132H28.0033C28.2376 60.0132 28.4543 59.8903 28.575 59.6897L30.5755 56.3554C30.7025 56.1439 30.7025 55.8797 30.5755 55.6685L28.575 52.3341ZM27.6261 58.6794H24.3796L22.7791 56.0119L24.3796 53.3443H27.6261L29.2266 56.0119L27.6261 58.6794Z" fill="#FFB800"/>
<path d="M50.0105 40.0066C54.4151 40.0214 57.9979 36.4627 58.0127 32.0582C58.0149 31.3877 57.9326 30.7199 57.7678 30.07C57.6789 29.7126 57.317 29.495 56.9596 29.5839C56.8421 29.6133 56.7351 29.6739 56.6495 29.7592L52.4982 33.9078L49.2045 32.8101L48.1061 29.5172L52.2574 25.3651C52.5177 25.1045 52.5174 24.6823 52.2568 24.4219C52.171 24.3361 52.0629 24.2751 51.9446 24.2461C47.6731 23.1643 43.3339 25.75 42.2522 30.0212C42.0879 30.6692 42.0058 31.3353 42.008 32.0039C42.0097 32.5289 42.0637 33.0524 42.1702 33.5665L27.5651 48.1713C27.051 48.0651 26.5276 48.0111 26.0028 48.0091C21.5829 48.0091 18 51.592 18 56.0119C18 60.4315 21.5829 64.0144 26.0028 64.0144C30.4224 64.0144 34.0053 60.4315 34.0053 56.0119C34.0036 55.4868 33.9493 54.9634 33.8431 54.4493L37.3396 50.9528L38.8688 52.482C39.1294 52.7423 39.5513 52.7423 39.8119 52.482L40.1453 52.1484C40.4377 51.8578 40.9104 51.8578 41.2028 52.1484C41.495 52.4397 41.4956 52.9127 41.2042 53.2049C41.2039 53.2051 41.2034 53.2057 41.2028 53.2062L40.8695 53.5396C40.6092 53.7999 40.6092 54.2221 40.8695 54.4825L48.8248 62.4378C50.9172 64.5494 54.3251 64.5647 56.4367 62.4723C58.548 60.3799 58.5633 56.9718 56.471 54.8605C56.4597 54.849 56.4482 54.8375 56.4367 54.8259L48.4814 46.8709C48.221 46.6105 47.7988 46.6105 47.5384 46.8709L47.2051 47.2042C46.9124 47.495 46.44 47.495 46.1473 47.2042C45.8554 46.9129 45.8545 46.4399 46.1459 46.148C46.1464 46.1475 46.147 46.1472 46.1473 46.1466L46.4809 45.813C46.7412 45.5527 46.7412 45.1305 46.4809 44.8701L44.9517 43.341L48.4482 39.8445C48.9623 39.9507 49.4857 40.005 50.0105 40.0066ZM52.6307 62.6808C52.1463 62.68 51.6659 62.5925 51.2124 62.4221L56.4207 57.2135C57.2067 59.3043 56.1492 61.6361 54.0584 62.4221C53.6022 62.5936 53.1185 62.6814 52.6307 62.6808ZM45.0757 45.3483C44.3372 46.2292 44.4529 47.5422 45.3339 48.2805C46.108 48.9293 47.2364 48.9287 48.0098 48.2785L55.4938 55.7691C55.575 55.8506 55.651 55.9365 55.7245 56.0237L50.0226 61.7256C49.9351 61.6523 49.8492 61.5763 49.7677 61.4949L42.278 54.0046C43.0165 53.1237 42.9007 51.8107 42.0198 51.0724C41.2456 50.4233 40.117 50.4241 39.3436 51.0741L38.2767 50.0071L44.0085 44.2839L45.0757 45.3483ZM47.7686 38.641L32.6401 53.7664C32.4742 53.9321 32.4075 54.1727 32.464 54.4002C33.3789 57.9932 31.2078 61.6477 27.6145 62.5623C24.0215 63.4772 20.367 61.3061 19.4521 57.7128C18.5374 54.1198 20.7086 50.4653 24.3019 49.5504C25.3888 49.2738 26.5276 49.2738 27.6145 49.5504C27.8419 49.6061 28.082 49.5394 28.2482 49.3745L43.3731 34.2488C43.5388 34.0831 43.6055 33.8425 43.5484 33.6153C42.6398 30.0643 44.7819 26.449 48.3329 25.5401C49.004 25.3687 49.6981 25.3028 50.3894 25.3459L46.8715 28.8651C46.6929 29.0435 46.6304 29.3076 46.7102 29.5471L48.0438 33.5487C48.1104 33.7476 48.2668 33.9039 48.466 33.9701L52.4675 35.3039C52.7067 35.3837 52.9709 35.3215 53.1495 35.1431L56.6674 31.6253C56.6753 31.7526 56.6795 31.8785 56.6795 32.0039C56.6981 35.6682 53.7429 38.6539 50.0786 38.6728C49.512 38.6755 48.9475 38.6059 48.3988 38.4654C48.1714 38.4086 47.9308 38.475 47.7651 38.6407H47.7686V38.641Z" fill="#FFB800"/>
<path d="M52.4834 57.5409L51.5402 58.484L44.8716 51.8154L45.8145 50.8722L52.4834 57.5409Z" fill="#FFB800"/>
</svg>
