<svg width="141" height="120" viewBox="0 0 141 120" fill="none" xmlns="http://www.w3.org/2000/svg">
<path d="M137.227 27.5383L112.677 2.98822C109.104 -0.584818 103.559 -1.00163 99.4918 1.99713L86.2299 11.7755C85.7484 12.1305 85.4458 12.6779 85.4009 13.2744C85.356 13.8708 85.5737 14.4572 85.9966 14.8803L89.1925 18.0762L75.152 32.1167H65.0622L51.0209 18.0754L54.2174 14.8786C54.6405 14.4555 54.8577 13.8692 54.8131 13.2727C54.7682 12.6763 54.4653 12.1288 53.9838 11.7739L40.7225 1.99767C36.657 -1.00191 31.112 -0.585091 27.5378 2.98932L23.6504 6.87702C22.8485 7.67888 22.8485 8.97916 23.6504 9.78102C24.4523 10.5829 25.7525 10.5829 26.5544 9.78102L30.4421 5.89332C32.5686 3.7668 35.8664 3.51841 38.2851 5.30288L42.6976 8.55578L8.55447 42.6986L5.30157 38.2876C3.51848 35.8658 3.76659 32.5658 5.89147 30.441L20.7472 15.5855C21.5491 14.7836 21.5491 13.4836 20.7472 12.6815C19.9456 11.8796 18.6453 11.8796 17.8432 12.6815L2.98747 27.537C-0.583929 31.1083 -1.00156 36.6537 1.99555 40.7235L11.7753 53.9857C12.1302 54.4672 12.6777 54.7698 13.2742 54.8147C13.3256 54.8185 13.3769 54.8204 13.4281 54.8204C13.9703 54.8204 14.4934 54.6055 14.8801 54.219L18.0763 51.0226L20.4608 53.4071C15.4229 57.7442 12.4753 64.075 12.4753 70.7799C12.4753 81.7898 20.3331 91.1917 30.9936 93.2741C32.1529 99.4173 36.5283 104.437 42.2999 106.507V113.883C42.2999 117.256 45.0429 120 48.4146 120C51.0675 120 53.3307 118.302 54.1764 115.936H57.1162C57.9616 118.302 60.2234 120 62.8752 120C65.5281 120 67.7912 118.302 68.6369 115.936H71.5776C72.423 118.302 74.6856 119.999 77.338 119.999C79.9903 119.999 82.2526 118.302 83.098 115.936H86.039C86.8844 118.302 89.147 119.999 91.7991 119.999C95.1714 119.999 97.9149 117.256 97.9149 113.883V97.7399C101.135 97.2952 104.03 95.8213 106.257 93.6602C110.362 93.4028 114.306 92.0499 117.713 89.7238C118.649 89.0841 118.89 87.8065 118.25 86.8699C117.611 85.9336 116.333 85.6926 115.397 86.3323C113.593 87.5644 111.604 88.461 109.515 89.0005C110.174 87.5206 110.599 85.9158 110.744 84.2307C116.046 81.9002 119.519 76.6648 119.519 70.7801C119.519 66.2215 117.425 62.0018 113.92 59.2408L116.84 56.3204C121.121 59.8838 123.632 65.1729 123.632 70.7796C123.632 74.4498 122.57 78.0081 120.56 81.0698C119.938 82.0179 120.202 83.2908 121.15 83.9133C121.498 84.1414 121.889 84.2502 122.275 84.2502C122.944 84.2502 123.599 83.924 123.994 83.3234C126.444 79.5905 127.739 75.2528 127.739 70.7799C127.739 64.0736 124.791 57.7433 119.753 53.4084L122.139 51.0226L125.335 54.2188C125.721 54.6052 126.245 54.8202 126.787 54.8202C126.838 54.8202 126.889 54.8183 126.941 54.8144C127.537 54.7695 128.085 54.4669 128.439 53.9854L138.218 40.7238C141.217 36.6562 140.8 31.1111 137.227 27.5383V27.5383ZM104.12 46.5042C104.12 45.9888 104.321 45.504 104.685 45.1395L110.471 39.354L113.2 42.083L107.414 47.8685C107.05 48.233 106.565 48.4338 106.05 48.4338C105.534 48.4338 105.05 48.233 104.685 47.8685C104.321 47.5043 104.12 47.0196 104.12 46.5042V46.5042ZM99.0366 27.9201L100.861 29.7445L95.0755 35.5301C94.711 35.8946 94.2266 36.0953 93.7109 36.0953C93.1955 36.0953 92.711 35.8946 92.3463 35.5301C91.594 34.7778 91.594 33.5534 92.3463 32.8011L98.1318 27.0155L99.0366 27.9201ZM92.0968 20.9802L95.2281 24.1115L89.4425 29.8971C87.089 32.2506 87.089 36.0803 89.4425 38.4338C90.5826 39.5739 92.0987 40.2018 93.7109 40.2018C95.3234 40.2018 96.8392 39.5739 97.9793 38.4338L103.765 32.6483L107.567 36.4502L101.781 42.2358C100.641 43.3759 100.013 44.892 100.013 46.5042C100.013 48.1164 100.641 49.6325 101.781 50.7725C102.921 51.9126 104.437 52.5406 106.05 52.5406C107.662 52.5406 109.178 51.9126 110.318 50.7725L116.104 44.987L119.235 48.1183L106.045 61.3084L78.9066 34.1704L92.0968 20.9802ZM83.4535 97.8856H85.6833V111.829H83.4535V97.8856ZM69.3583 93.7788L80.9332 82.4156C80.9272 82.5908 80.9198 82.7661 80.9198 82.9428C80.9198 87.2056 82.7171 91.0542 85.5902 93.7788H69.3583ZM54.5318 106.339C55.3027 106.039 56.0471 105.686 56.7608 105.284V111.829H54.5318V106.339ZM68.9927 97.8856H71.2221V111.829H68.9927V97.8856ZM65.6234 91.6904C65.6757 91.1407 65.705 90.5845 65.705 90.0215C65.705 80.3668 57.8502 72.512 48.1955 72.512C47.8173 72.512 47.443 72.5282 47.0705 72.552L58.5187 61.3575C58.947 67.3785 63.9791 72.1475 70.1073 72.1475C76.5156 72.1475 81.729 66.9341 81.729 60.5257C81.729 60.2513 81.7161 59.9802 81.6972 59.7107L93.4748 68.1941C90.3123 68.704 87.4781 70.2078 85.307 72.3767L85.3094 72.3641L65.6234 91.6904ZM29.2256 62.1722L32.3687 65.3153L36.2186 77.2665C35.0144 78.3981 33.9697 79.6962 33.1226 81.126C28.3641 80.0694 24.8009 75.7581 24.8009 70.7801C24.8011 67.3317 26.4651 64.1505 29.2256 62.1722V62.1722ZM70.1073 53.0108C74.251 53.0108 77.6222 56.382 77.6222 60.5257C77.6222 64.6695 74.251 68.0407 70.1073 68.0407C65.9635 68.0407 62.5923 64.6695 62.5923 60.5257C62.5923 56.382 65.9635 53.0108 70.1073 53.0108ZM102.196 69.4144C102.196 69.4144 77.3714 51.4531 77.0822 51.2354C75.1381 49.7721 72.7221 48.904 70.1073 48.904C67.0833 48.904 64.3261 50.066 62.2566 51.9655L39.5372 74.1743L36.5097 64.7763L65.0625 36.2235H75.1523L103.705 64.776L102.21 69.4204C102.205 69.4185 102.2 69.4166 102.196 69.4144V69.4144ZM29.744 39.3542L35.5296 45.1398C35.8941 45.5043 36.0948 45.9888 36.0948 46.5042C36.0948 47.0196 35.8941 47.5043 35.5296 47.8685C35.1651 48.233 34.6806 48.4338 34.1649 48.4338C33.6495 48.4338 33.1651 48.233 32.8006 47.8685L27.015 42.083L29.744 39.3542ZM13.6639 49.6272L11.0195 46.0413L46.0406 11.0202L49.6256 13.663L13.6639 49.6272ZM24.1113 44.9873L29.8966 50.7725C31.0366 51.9126 32.5525 52.5406 34.1649 52.5406C35.7774 52.5406 37.2932 51.9126 38.4333 50.7725C39.5734 49.6325 40.2013 48.1164 40.2013 46.5042C40.2013 44.892 39.5734 43.3759 38.4333 42.2358L32.6478 36.4502L32.6954 36.4026L36.4497 32.6483L42.2353 38.4338C43.3754 39.5739 44.8912 40.2018 46.5036 40.2018C48.1161 40.2018 49.6319 39.5739 50.772 38.4338C53.1256 36.0803 53.1256 32.2506 50.772 29.8971L44.9865 24.1115L48.1178 20.9802L61.3079 34.1704L34.1696 61.3084L20.98 48.1188L24.1113 44.9873ZM42.0827 27.0155L47.8683 32.8011C48.6206 33.5534 48.6206 34.7778 47.8683 35.5301C47.5038 35.8946 47.019 36.0953 46.5036 36.0953C45.9882 36.0953 45.5035 35.8946 45.139 35.5301L39.3537 29.7445L42.0827 27.0155ZM16.5821 70.7799C16.5821 65.1745 19.0928 59.8849 23.373 56.3193L26.294 59.2403C22.7883 62.0016 20.6941 66.2212 20.6941 70.7799C20.6941 74.4657 22.0697 77.9938 24.5675 80.7144C26.4418 82.7557 28.8219 84.2077 31.44 84.94C31.0454 86.2384 30.7981 87.5997 30.7173 89.0054C22.5139 86.9017 16.5821 79.4478 16.5821 70.7799V70.7799ZM34.7929 90.0215C34.7929 82.6314 40.8055 76.6188 48.1955 76.6188C55.5856 76.6188 61.5982 82.6311 61.5982 90.0215C61.5982 97.4118 55.5856 103.424 48.1955 103.424C40.8055 103.424 34.7929 97.4118 34.7929 90.0215ZM48.4146 115.893C47.3077 115.893 46.4067 114.991 46.4067 113.883V107.44C46.9949 107.5 47.5914 107.531 48.1953 107.531C48.9511 107.531 49.6941 107.478 50.425 107.384V113.883C50.425 114.991 49.5232 115.893 48.4146 115.893V115.893ZM62.8752 115.893C61.7683 115.893 60.8675 114.991 60.8675 113.883V102.114L64.8859 98.1693V113.883C64.8859 114.991 63.9841 115.893 62.8752 115.893ZM77.338 115.892C76.2302 115.892 75.3289 114.991 75.3289 113.883V97.8856H79.3467V113.883C79.3467 114.991 78.4457 115.892 77.338 115.892ZM91.7991 115.892C90.6913 115.892 89.7903 114.991 89.7903 113.883V97.8856H93.8081V113.883C93.8081 114.991 92.9068 115.892 91.7991 115.892ZM95.8615 93.7777C89.8873 93.7777 85.0266 88.9173 85.0266 82.9428C85.0266 76.9685 89.887 72.1078 95.8615 72.1078C101.836 72.1078 106.696 76.9682 106.696 82.9428C106.696 88.9173 101.836 93.7777 95.8615 93.7777ZM115.412 70.7801C115.412 74.4909 113.496 77.8443 110.456 79.7501C109.769 76.6081 108.092 73.8334 105.767 71.7704L107.845 65.3158L110.988 62.1727C113.748 64.1503 115.412 67.3314 115.412 70.7801V70.7801ZM126.551 49.6264L90.5886 13.6643L94.1743 11.0205L129.195 46.0408L126.551 49.6264ZM134.912 38.2859L131.659 42.6978L97.517 8.5555L101.929 5.30233C104.349 3.51814 107.647 3.76626 109.773 5.89195L134.323 30.4421C136.448 32.5677 136.696 35.8667 134.912 38.2859V38.2859Z" fill="#FFB800"/>
<path d="M54.3927 90.0182C54.3927 86.6008 51.6125 83.8206 48.195 83.8206C44.7776 83.8206 41.9974 86.6008 41.9974 90.0182C41.9974 93.4357 44.7776 96.2159 48.195 96.2159C51.6125 96.2159 54.3927 93.4357 54.3927 90.0182V90.0182ZM46.1041 90.0182C46.1041 88.8653 47.0421 87.9273 48.195 87.9273C49.348 87.9273 50.2859 88.8653 50.2859 90.0182C50.2859 91.1712 49.348 92.1091 48.195 92.1091C47.0421 92.1091 46.1041 91.1712 46.1041 90.0182Z" fill="#FFB800"/>
<path d="M95.8611 76.7439C92.4436 76.7439 89.6634 79.5241 89.6634 82.9416C89.6634 86.359 92.4436 89.1392 95.8611 89.1392C99.2785 89.1392 102.059 86.359 102.059 82.9416C102.059 79.5241 99.2785 76.7439 95.8611 76.7439V76.7439ZM95.8611 85.0325C94.7081 85.0325 93.7702 84.0945 93.7702 82.9416C93.7702 81.7886 94.7081 80.8507 95.8611 80.8507C97.014 80.8507 97.952 81.7886 97.952 82.9416C97.952 84.0945 97.014 85.0325 95.8611 85.0325Z" fill="#FFB800"/>
</svg>
