<svg width="102" height="120" viewBox="0 0 102 120" fill="none" xmlns="http://www.w3.org/2000/svg">
<path d="M98.9855 83.8849C97.691 83.8849 96.6417 84.9342 96.6417 86.2287V105.356C96.6417 110.846 92.175 115.312 86.6848 115.312H14.6445C9.15422 115.312 4.6875 110.846 4.6875 105.356V47.2859C4.6875 41.7942 9.15422 37.3266 14.6445 37.3266H41.355L43.1168 68.7445H30.8114V55.6716C30.8114 51.7924 27.6555 48.6366 23.7762 48.6366C21.8977 48.6366 20.1312 49.3685 18.8046 50.6953C17.4741 52.0221 16.7412 53.7895 16.7412 55.6716V96.9839C16.7412 100.863 19.897 104.019 23.7762 104.019C27.6115 104.019 30.8114 100.819 30.8114 96.9839V82.8148H43.5499V96.9839C43.5499 100.863 46.7058 104.019 50.5852 104.019C54.42 104.019 57.6204 100.819 57.6204 96.9839V82.8148H70.3589V96.9839C70.3589 100.863 73.5148 104.019 77.3941 104.019C81.229 104.019 84.4291 100.819 84.4291 96.9839V55.6716C84.4291 51.7924 81.2733 48.6366 77.3941 48.6366C75.5121 48.6366 73.7447 49.3692 72.4223 50.6953C71.0918 52.0221 70.3589 53.7895 70.3589 55.6716V68.7445H58.0723L59.91 37.3266L86.6967 37.327C92.1806 37.3331 96.6422 41.8008 96.6422 47.2859V65.6072C96.6422 66.9016 97.6915 67.9509 98.9859 67.9509C100.28 67.9509 101.33 66.9016 101.33 65.6072V47.2859C101.33 39.2189 94.7677 32.6487 86.6995 32.6395L60.184 32.6391L60.5123 27.0255C62.2352 25.0905 63.2848 22.5436 63.2848 19.7552V10.9472C63.2843 4.91086 58.3734 0 52.3371 0H48.9921C42.956 0 38.0449 4.91086 38.0449 10.9472V19.7552C38.0449 22.5202 39.0776 25.0472 40.7745 26.9761L41.092 32.6391H14.6445C6.56953 32.6391 0 39.2095 0 47.2859V105.356C0 113.43 6.56953 120 14.6445 120H86.6848C94.7599 120 101.329 113.43 101.329 105.356V86.2287C101.329 84.9342 100.28 83.8849 98.9855 83.8849V83.8849ZM46.2881 30.3635C48.2562 30.8634 50.3845 30.72 52.4011 30.7017C53.4942 30.6919 54.5873 30.5264 55.6308 30.1978L53.2479 70.9376C53.145 72.5435 53.0597 74.1506 52.9659 75.757C52.9446 76.1243 52.9188 76.5525 52.8455 76.9104C52.6261 77.9791 51.7174 78.7463 50.5847 78.7463C49.9364 78.7463 49.3071 78.4706 48.8658 77.996C48.3652 77.4577 48.2693 76.8422 48.2262 76.1391L47.9367 70.9573C47.9362 70.95 47.9348 70.9432 47.9346 70.9362L46.9458 53.3046L45.911 34.8513C45.911 34.8511 45.911 34.8511 45.911 34.8511L45.6492 30.1823C45.8602 30.2501 46.0737 30.3089 46.2881 30.3635V30.3635ZM28.4677 78.1273C27.1732 78.1273 26.1239 79.1766 26.1239 80.471V96.9839C26.1239 98.2631 25.0552 99.3316 23.7762 99.3316C22.4817 99.3316 21.4287 98.2784 21.4287 96.9839V55.6716C21.4287 55.0439 21.6722 54.4554 22.1168 54.0122C22.5607 53.5683 23.1499 53.3241 23.7764 53.3241C25.0709 53.3241 26.1241 54.3771 26.1241 55.6716V71.0883C26.1241 72.3827 27.1734 73.432 28.4679 73.432H43.38C43.4184 74.1195 43.4571 74.8069 43.4955 75.4941C43.545 76.3744 43.5469 77.268 43.7648 78.127H28.4677V78.1273ZM52.9327 96.9839C52.9327 98.2624 51.8637 99.3316 50.5849 99.3316C49.2905 99.3316 48.2372 98.2784 48.2372 96.9839V83.0313C49.7426 83.5659 51.427 83.5659 52.9324 83.0313V96.9839H52.9327ZM72.7022 73.432C73.9966 73.432 75.0459 72.3827 75.0459 71.0883V55.6716C75.0459 55.0439 75.2895 54.4554 75.7362 54.0098C76.1773 53.5676 76.7658 53.3241 77.3934 53.3241C78.6879 53.3241 79.7409 54.3771 79.7409 55.6716V96.9839C79.7409 98.2624 78.6722 99.3316 77.3934 99.3316C76.099 99.3316 75.0457 98.2784 75.0457 96.9839V80.471C75.0457 79.1766 73.9964 78.1273 72.702 78.1273H57.405C57.6145 77.3011 57.6211 76.4466 57.6705 75.6002C57.7127 74.8777 57.7552 74.1548 57.7973 73.4323H72.7022V73.432ZM42.7327 10.9472C42.7327 7.49555 45.5407 4.6875 48.9921 4.6875H52.3371C55.7887 4.6875 58.5968 7.49555 58.5968 10.9472V19.7552C58.5968 22.3434 57.0178 24.57 54.7723 25.5218C53.5057 26.0848 52.1435 26.0149 50.7947 26.0149C49.4571 26.0149 48.1141 26.0995 46.8335 25.631C44.4424 24.7498 42.7324 22.4484 42.7324 19.7552V10.9472H42.7327Z" fill="#FFB800"/>
<path d="M21.7008 44.9391C22.4143 45.9999 23.8852 46.2987 24.9516 45.5883C26.0166 44.8789 26.3023 43.4002 25.5985 42.3375C24.8925 41.2718 23.4101 40.9873 22.35 41.6907C21.286 42.3966 20.9939 43.8783 21.7008 44.9391Z" fill="#FFB800"/>
<path d="M24.5462 106.821C22.578 106.001 20.6099 108.147 21.5577 110.038C22.0035 110.928 23.009 111.454 23.9948 111.304C24.9871 111.152 25.783 110.374 25.9579 109.387C26.1465 108.322 25.5475 107.232 24.5462 106.821V106.821Z" fill="#FFB800"/>
<path d="M79.8376 42.3375C79.1284 41.2742 77.6518 40.9856 76.5892 41.6906C75.5265 42.3959 75.2307 43.8813 75.94 44.9414C76.6501 46.0029 78.1288 46.2949 79.1907 45.5883C80.2604 44.8765 80.5358 43.4037 79.8376 42.3375Z" fill="#FFB800"/>
<path d="M78.7854 106.821C76.8187 106.002 74.846 108.146 75.7969 110.038C76.2441 110.928 77.2465 111.455 78.2339 111.304C79.226 111.152 80.0217 110.374 80.197 109.387C80.3862 108.323 79.7866 107.231 78.7854 106.821V106.821Z" fill="#FFB800"/>
<path d="M52.6124 107.686C51.4607 105.927 48.6582 106.578 48.3477 108.642C48.0294 110.756 50.6101 112.148 52.209 110.749C53.083 109.983 53.2555 108.651 52.6124 107.686V107.686Z" fill="#FFB800"/>
<path d="M101.419 75.6866C101.03 73.619 98.18 73.1507 97.1133 74.9395C96.601 75.7987 96.6954 76.9148 97.3484 77.6739C97.9894 78.419 99.0558 78.6822 99.9708 78.3266C101.014 77.9214 101.642 76.787 101.419 75.6866Z" fill="#FFB800"/>
</svg>
