<svg width="85" height="120" viewBox="0 0 85 120" fill="none" xmlns="http://www.w3.org/2000/svg">
<path d="M51.3006 31.4447C47.3317 27.2194 40.6605 26.9806 36.3887 30.9936C32.1458 34.989 31.9431 41.6576 35.9401 45.9017L52.0872 63.0582C56.0172 67.232 62.6959 67.557 66.996 63.5063C71.2389 59.5109 71.4416 52.8423 67.4446 48.5982L51.3006 31.4447ZM62.1751 58.3876C60.7794 59.7024 58.5548 59.6705 57.2066 58.2385L41.0594 41.082C39.7197 39.6594 39.8033 37.4361 41.2058 36.1154C42.6201 34.7867 44.8466 34.8439 46.1779 36.2612L62.3251 53.4176C63.6576 54.8326 63.5905 57.0549 62.1751 58.3876Z" fill="#FFB800"/>
<path d="M83.4195 45.0513L55.2945 15.1685C54.6302 14.4628 53.7038 14.0625 52.7344 14.0625H42.1875V3.51562C42.1875 1.57406 40.6134 0 38.6719 0H17.5781C15.6366 0 14.0625 1.57406 14.0625 3.51562V16.2415L0.888047 31.0627C0.316172 31.7062 0 32.5373 0 33.3984V95.3913C0.000234375 98.0897 1.01906 100.555 2.69203 102.422C1.01906 104.289 0 106.755 0 109.453C0 115.269 4.73133 120 10.5469 120H73.8281C79.6437 120 84.375 115.269 84.375 109.453C84.375 106.754 83.3545 104.289 81.6809 102.422C83.3548 100.554 84.375 98.0899 84.375 95.3906V47.4609C84.375 46.5654 84.0333 45.7036 83.4195 45.0513ZM21.0938 7.03125H35.1562V14.0625H21.0938V7.03125ZM73.8281 112.969H10.5469C8.60836 112.969 7.03125 111.392 7.03125 109.453C7.03125 107.515 8.60836 105.938 10.5469 105.938C12.4884 105.938 14.0625 104.363 14.0625 102.422C14.0625 100.48 12.4884 98.9062 10.5469 98.9062C8.60836 98.9062 7.03125 97.3291 7.03125 95.3906C7.03125 93.4521 8.60836 91.875 10.5469 91.875C12.4884 91.875 14.0625 90.3009 14.0625 88.3594C14.0625 86.4178 12.4884 84.8438 10.5469 84.8438C9.3143 84.8438 8.13164 85.0582 7.03125 85.4484V34.7351L19.1569 21.0938H51.2152L77.3438 48.8552V85.4484C76.2434 85.0582 75.0607 84.8438 73.8281 84.8438C71.8866 84.8438 70.3125 86.4178 70.3125 88.3594C70.3125 90.3009 71.8866 91.875 73.8281 91.875C75.7666 91.875 77.3438 93.4521 77.3438 95.3906C77.3438 97.3291 75.7666 98.9062 73.8281 98.9062C73.3427 98.9062 72.8803 99.0047 72.4596 99.1826C71.198 99.7162 70.3125 100.966 70.3125 102.422C70.3125 103.878 71.198 105.128 72.4596 105.661C72.8803 105.839 73.3427 105.938 73.8281 105.938C75.7666 105.938 77.3438 107.515 77.3438 109.453C77.3438 111.392 75.7666 112.969 73.8281 112.969V112.969Z" fill="#FFB800"/>
<path d="M45.0802 72.2988C44.4237 71.3484 43.3425 70.7812 42.1875 70.7812C41.0325 70.7812 39.9513 71.3484 39.2948 72.2988C39.2198 72.4073 37.4374 74.9934 35.6309 78.1078C32.0543 84.2733 31.6406 86.9114 31.6406 88.3594C31.6406 94.1749 36.372 98.9062 42.1875 98.9062C48.003 98.9062 52.7344 94.1749 52.7344 88.3594C52.7344 86.9114 52.3207 84.2733 48.7441 78.1078C46.9376 74.9934 45.1552 72.4073 45.0802 72.2988ZM42.1875 91.875C40.249 91.875 38.6719 90.2979 38.6719 88.3634C38.7005 87.2885 40.163 84.2248 42.1882 80.8125C44.2118 84.221 45.6731 87.2834 45.7031 88.3619C45.7015 90.2993 44.1251 91.875 42.1875 91.875V91.875Z" fill="#FFB800"/>
</svg>
