<svg width="120" height="120" viewBox="0 0 120 120" fill="none" xmlns="http://www.w3.org/2000/svg">
<path d="M19.9579 100.092L19.9162 100.051C19.0028 99.1322 17.5183 99.1285 16.6002 100.041C15.682 100.955 15.678 102.439 16.5911 103.357L16.6328 103.399C17.0913 103.86 17.6931 104.09 18.2952 104.09C18.8931 104.09 19.4913 103.863 19.9488 103.408C20.867 102.495 20.871 101.011 19.9579 100.092Z" fill="#FFB800"/>
<path d="M68.4668 56.2263C64.5881 56.2263 61.4327 59.3817 61.4327 63.2604C61.4327 67.1391 64.5881 70.2945 68.4668 70.2945C72.3454 70.2945 75.5008 67.1391 75.5008 63.2604C75.5008 59.3817 72.3452 56.2263 68.4668 56.2263ZM68.4668 65.6051C67.174 65.6051 66.1221 64.5532 66.1221 63.2604C66.1221 61.9676 67.174 60.9157 68.4668 60.9157C69.7596 60.9157 70.8115 61.9676 70.8115 63.2604C70.8115 64.5532 69.7596 65.6051 68.4668 65.6051Z" fill="#FFB800"/>
<path d="M45.0105 56.2263C41.1319 56.2263 37.9765 59.3817 37.9765 63.2604C37.9765 67.1391 41.1319 70.2945 45.0105 70.2945C48.8892 70.2945 52.0446 67.1391 52.0446 63.2604C52.0446 59.3817 48.8892 56.2263 45.0105 56.2263ZM45.0105 65.6051C43.7177 65.6051 42.6658 64.5532 42.6658 63.2604C42.6658 61.9676 43.7177 60.9157 45.0105 60.9157C46.3033 60.9157 47.3552 61.9676 47.3552 63.2604C47.3552 64.5532 46.3036 65.6051 45.0105 65.6051Z" fill="#FFB800"/>
<path d="M56.7387 67.9545C52.86 67.9545 49.7046 71.1099 49.7046 74.9885C49.7046 78.8672 52.86 82.0226 56.7387 82.0226C60.6173 82.0226 63.7727 78.8672 63.7727 74.9885C63.7727 71.1099 60.6173 67.9545 56.7387 67.9545ZM56.7387 77.3332C55.4458 77.3332 54.394 76.2813 54.394 74.9885C54.394 73.6957 55.4458 72.6438 56.7387 72.6438C58.0315 72.6438 59.0833 73.6957 59.0833 74.9885C59.0833 76.2813 58.0317 77.3332 56.7387 77.3332Z" fill="#FFB800"/>
<path d="M56.7387 44.4982C52.86 44.4982 49.7046 47.6536 49.7046 51.5322C49.7046 55.4109 52.86 58.5663 56.7387 58.5663C60.6173 58.5663 63.7727 55.4109 63.7727 51.5322C63.7727 47.6536 60.6173 44.4982 56.7387 44.4982ZM56.7387 53.8769C55.4458 53.8769 54.394 52.825 54.394 51.5322C54.394 50.2394 55.4458 49.1875 56.7387 49.1875C58.0315 49.1875 59.0833 50.2394 59.0833 51.5322C59.0833 52.825 58.0317 53.8769 56.7387 53.8769Z" fill="#FFB800"/>
<path d="M101.504 18.4958C90.2071 7.19934 75.2101 0.631923 59.2757 0.00356389C58.004 -0.046358 56.7505 0.430126 55.8339 1.31091C54.9055 2.20341 54.3946 3.40364 54.3946 4.69106V6.57052C40.119 7.14919 26.7704 12.9842 16.6168 23.138C7.35059 32.4043 1.54512 44.6771 0.269653 57.6961C-0.988472 70.5371 2.18379 83.5231 9.20262 94.2624C9.65239 94.9507 10.4024 95.3246 11.1674 95.3246C11.6073 95.3246 12.0524 95.2011 12.4478 94.9423C13.5318 94.234 13.836 92.7809 13.1277 91.6969C-0.255816 71.2191 2.60614 43.7804 19.9328 26.454C29.2014 17.1854 41.372 11.8393 54.3946 11.2639V34.7518C39.7143 35.9485 28.134 48.2768 28.134 63.2604C28.134 79.0334 40.9663 91.8657 56.7393 91.8657C71.7229 91.8657 84.0512 80.2854 85.2479 65.6051H108.736C108.16 78.6275 102.814 90.7986 93.5455 100.067C76.1591 117.454 48.6585 120.275 28.1556 106.775C27.074 106.063 25.6201 106.362 24.9076 107.444C24.1956 108.526 24.4949 109.98 25.5765 110.692C34.8118 116.773 45.718 120 56.7777 120C58.5864 120 60.4011 119.914 62.2112 119.739C75.2659 118.482 87.5718 112.673 96.8615 103.383C107.015 93.2297 112.85 79.8807 113.429 65.6054H115.308C116.596 65.6054 117.796 65.0942 118.688 64.1661C119.569 63.2494 120.046 61.995 119.996 60.7243C119.368 44.7893 112.8 29.7924 101.504 18.4958ZM56.739 87.1763C43.5517 87.1763 32.8232 76.4478 32.8232 63.2604C32.8232 50.0731 43.5517 39.3446 56.739 39.3446C69.9264 39.3446 80.6549 50.0731 80.6549 63.2604C80.6549 76.4478 69.9264 87.1763 56.739 87.1763ZM85.2491 60.916L85.2479 60.9183C84.1154 47.0093 72.9901 35.884 59.0811 34.7515L59.0837 34.7504V4.69106L59.0907 4.68942C89.4198 5.8852 114.114 30.5797 115.308 60.9158H85.2491V60.916Z" fill="#FFB800"/>
<path d="M18.712 48.263C17.4813 47.8584 16.1568 48.528 15.7523 49.7583L15.6763 49.9915C15.2779 51.2238 15.9543 52.5455 17.1866 52.9434C17.4259 53.0208 17.669 53.0576 17.9078 53.0576C18.8978 53.0576 19.8177 52.4257 20.1386 51.4329L20.2073 51.2227C20.6116 49.9924 19.942 48.6675 18.712 48.263Z" fill="#FFB800"/>
<path d="M18.7281 69.113L18.696 68.8991C18.5083 67.6177 17.3174 66.7311 16.0361 66.9191C14.755 67.1066 13.8681 68.2974 14.0561 69.579L14.0936 69.8283C14.2722 70.9869 15.2709 71.8158 16.408 71.8158C16.5269 71.8156 16.6471 71.8067 16.7685 71.788C18.0482 71.5904 18.9255 70.3927 18.7281 69.113Z" fill="#FFB800"/>
<path d="M25.3964 85.5426L25.2707 85.3652C24.5261 84.3058 23.0634 84.051 22.004 84.7957C20.9446 85.5403 20.6899 87.003 21.4345 88.0624L21.58 88.2677C22.0378 88.9085 22.7585 89.2502 23.4899 89.2502C23.9615 89.2502 24.4378 89.1084 24.8505 88.8133C25.9042 88.0607 26.1487 86.5966 25.3964 85.5426Z" fill="#FFB800"/>
<path d="M29.4963 32.8034C28.5794 31.8884 27.0951 31.89 26.1801 32.8067L26.005 32.9834C25.0959 33.9059 25.1067 35.3902 26.0292 36.2993C26.486 36.7496 27.0806 36.9741 27.675 36.9741C28.2806 36.9741 28.8862 36.7409 29.3451 36.2754L29.4998 36.1193C30.4143 35.2024 30.4129 33.7179 29.4963 32.8034Z" fill="#FFB800"/>
<path d="M76.3619 99.1134C75.805 97.9446 74.4058 97.4484 73.2367 98.0053L73.0396 98.0984C71.8666 98.647 71.3606 100.043 71.9092 101.216C72.3077 102.067 73.1524 102.567 74.0345 102.567C74.3674 102.567 74.7051 102.496 75.0264 102.346L75.254 102.239C76.4228 101.682 76.919 100.283 76.3619 99.1134Z" fill="#FFB800"/>
<path d="M55.8882 101.704L55.6719 101.699C54.3814 101.658 53.2988 102.683 53.2627 103.977C53.2266 105.272 54.2466 106.35 55.5411 106.387L55.7919 106.393C55.8083 106.393 55.8247 106.393 55.8409 106.393C57.1133 106.393 58.1579 105.375 58.1841 104.097C58.2106 102.802 57.1827 101.731 55.8882 101.704Z" fill="#FFB800"/>
<path d="M46.0588 23.8032C45.6484 22.5748 44.3202 21.9118 43.0923 22.3215L42.8591 22.3997C41.6328 22.8155 40.9756 24.1468 41.3912 25.373C41.7226 26.3501 42.6343 26.9658 43.6116 26.9658C43.861 26.9658 44.1151 26.9258 44.3645 26.8411L44.577 26.7697C45.8056 26.3595 46.4689 25.0313 46.0588 23.8032Z" fill="#FFB800"/>
<path d="M38.7307 97.2455L38.5354 97.1412C37.3947 96.528 35.9732 96.9555 35.3601 98.0962C34.747 99.2369 35.1745 100.658 36.3152 101.272L36.5322 101.387C36.8828 101.573 37.2586 101.661 37.6296 101.661C38.4693 101.661 39.2814 101.209 39.7028 100.416C40.3096 99.2721 39.8744 97.8525 38.7307 97.2455Z" fill="#FFB800"/>
<path d="M97.2157 68.9323C95.9456 68.6794 94.7114 69.5046 94.4587 70.7747L94.4147 70.9936C94.1564 72.2625 94.9755 73.5005 96.2444 73.759C96.4022 73.7911 96.5597 73.8066 96.7146 73.8066C97.8061 73.8066 98.7837 73.0402 99.0098 71.9292L99.0581 71.6892C99.3105 70.4189 98.4858 69.1847 97.2157 68.9323Z" fill="#FFB800"/>
<path d="M90.3594 86.4882C89.3373 85.6937 87.864 85.8782 87.0693 86.9005L86.9366 87.0695C86.1336 88.0855 86.3059 89.5597 87.3217 90.3629C87.7525 90.7035 88.2653 90.8685 88.7746 90.8685C89.4669 90.8685 90.1525 90.5633 90.6154 89.9781L90.7717 89.7786C91.5665 88.7561 91.382 87.2828 90.3594 86.4882Z" fill="#FFB800"/>
<path d="M104.055 39.3772L104.045 39.3582C103.466 38.1999 102.058 37.7307 100.899 38.3096C99.7408 38.8888 99.2714 40.2971 99.8505 41.4554L99.8819 41.5168C100.297 42.3266 101.118 42.792 101.97 42.792C102.33 42.792 102.696 42.7088 103.038 42.5333C104.19 41.9424 104.645 40.5294 104.055 39.3772Z" fill="#FFB800"/>
<path d="M98.933 31.1994C91.9437 22.0137 82.0019 15.2647 70.9394 12.1946C69.6914 11.8477 68.3995 12.5792 68.0531 13.827C67.7067 15.0748 68.4377 16.3669 69.6855 16.7133C79.7667 19.5111 88.8286 25.6639 95.2015 34.039C95.663 34.6454 96.3619 34.9641 97.069 34.9641C97.564 34.9641 98.0629 34.808 98.4869 34.4853C99.5175 33.7008 99.7172 32.2299 98.933 31.1994Z" fill="#FFB800"/>
</svg>
