<?xml version="1.0" encoding="UTF-8"?>
<svg xmlns="http://www.w3.org/2000/svg" id="Icons" viewBox="0 0 60 60" width="512" height="512"><path d="M58,54.184V12a3,3,0,0,0-3-3H46V8a1,1,0,0,1,1-1h6.06a1,1,0,0,0,.895-1.445A9.988,9.988,0,0,0,36.351,5L23.64,4.975a9.993,9.993,0,0,0-17.595.58A1,1,0,0,0,6.94,7H13a1,1,0,0,1,1,1V9H5a3,3,0,0,0-3,3V54.184A2.993,2.993,0,0,0,3,60H57a2.993,2.993,0,0,0,1-5.816ZM13,5H8.754A7.944,7.944,0,0,1,15,2a8.03,8.03,0,0,1,6.911,3.98A2.026,2.026,0,0,0,23.649,7h12.7a2.027,2.027,0,0,0,1.738-1.019A8.029,8.029,0,0,1,45,2a7.944,7.944,0,0,1,6.246,3H47a3,3,0,0,0-3,3v4a3,3,0,0,0,3,3h4.246A7.944,7.944,0,0,1,45,18a8.078,8.078,0,0,1-6.883-4,2,2,0,0,0-1.729-1H23.613a2,2,0,0,0-1.729,1A8.078,8.078,0,0,1,15,18a7.944,7.944,0,0,1-6.247-3H13a3,3,0,0,0,3-3V8A3,3,0,0,0,13,5ZM4,12a1,1,0,0,1,1-1h9v1a1,1,0,0,1-1,1H6.94a1,1,0,0,0-.9,1.445A9.941,9.941,0,0,0,15,20a10.085,10.085,0,0,0,8.612-5l12.783.024A10.088,10.088,0,0,0,45,20a9.941,9.941,0,0,0,8.956-5.555A1,1,0,0,0,53.06,13H47a1,1,0,0,1-1-1V11h9a1,1,0,0,1,1,1V54H54V25a3,3,0,0,0-3-3H9a3,3,0,0,0-3,3V54H4ZM21,54V51H39v3ZM42,41h2a2,2,0,0,1,2,2H43a1,1,0,0,1-1-1Zm3-2h-.412l-1.111-2H45a.978.978,0,0,1,.713.306A.965.965,0,0,1,46,38,1,1,0,0,1,45,39Zm-2.7,0H17.7l3.318-5.971A2,2,0,0,1,22.766,32H37.234a2,2,0,0,1,1.749,1.029ZM15.412,39H15a1,1,0,0,1-1-1,.978.978,0,0,1,.306-.712A.957.957,0,0,1,15,37h1.523ZM16,41h2v1a1,1,0,0,1-1,1H14A2,2,0,0,1,16,41Zm1,4a3,3,0,0,0,3-3V41H40v1a3,3,0,0,0,3,3h3v3a1,1,0,0,1-1,1H38V47a2,2,0,0,0-2-2H24a2,2,0,0,0-2,2v2H15a1,1,0,0,1-1-1V45Zm19,4H24V47H36ZM16,51h3v3H16Zm25,0h3v3H41Zm5-.184A3,3,0,0,0,48,48V43a3.971,3.971,0,0,0-1.08-2.714A2.981,2.981,0,0,0,48,38a3.015,3.015,0,0,0-3-3H42.366l-1.635-2.943A4,4,0,0,0,37.234,30H22.766a4,4,0,0,0-3.5,2.057L17.634,35H15a3.017,3.017,0,0,0-3,3,2.981,2.981,0,0,0,1.08,2.286A3.971,3.971,0,0,0,12,43v5a3,3,0,0,0,2,2.816V54H8V25a1,1,0,0,1,1-1H51a1,1,0,0,1,1,1V54H46ZM57,58H3a1,1,0,0,1,0-2H57a1,1,0,0,1,0,2Z" fill="#ffb800"/></svg>
