<svg width="454" height="454" viewBox="0 0 454 454" fill="none" xmlns="http://www.w3.org/2000/svg">
<path d="M227 53.2031C222.105 53.2031 218.133 57.1756 218.133 62.0703C218.133 66.965 222.105 70.9375 227 70.9375C231.895 70.9375 235.867 66.965 235.867 62.0703C235.867 57.1756 231.895 53.2031 227 53.2031Z" fill="#FFB800"/>
<path d="M227 0C105.033 0 0 104.018 0 227C0 349.28 104.361 454 227 454C349.224 454 454 349.627 454 227C454 104.056 349.005 0 227 0ZM410.639 325.035L405.702 322.182C401.462 319.731 396.039 321.185 393.589 325.425C391.139 329.666 392.591 335.089 396.831 337.539L401.426 340.193C385.335 364.408 364.407 385.337 340.191 401.427L337.537 396.833C335.088 392.594 329.666 391.14 325.424 393.59C321.184 396.04 319.731 401.464 322.181 405.704L325.034 410.641C297.241 425.959 266.734 434.654 235.867 436.056V427.398C235.867 422.501 231.896 418.531 227 418.531C222.104 418.531 218.133 422.501 218.133 427.398V436.055C186.175 434.644 155.804 425.668 128.815 410.906L131.821 405.7C134.27 401.457 132.815 396.035 128.574 393.587C124.33 391.139 118.909 392.592 116.462 396.835L113.625 401.749C89.2908 385.678 68.3226 364.711 52.2526 340.377L57.1668 337.54C61.4079 335.092 62.8621 329.669 60.413 325.428C57.9648 321.186 52.5425 319.732 48.3013 322.181L43.0945 325.186C28.3307 298.196 19.3553 267.825 17.9454 235.867H26.6016C31.498 235.867 35.4688 231.897 35.4688 227C35.4688 222.103 31.498 218.133 26.6016 218.133H17.9428C19.3633 186.843 28.2597 156.371 43.3357 128.954L48.2996 131.82C52.5204 134.257 57.9533 132.834 60.4121 128.574C62.8613 124.333 61.4079 118.91 57.1668 116.462L52.5159 113.777C68.3394 89.9124 89.0957 68.9424 113.799 52.5567L116.463 57.1685C118.921 61.423 124.349 62.8524 128.576 60.4113C132.816 57.9621 134.269 52.5381 131.819 48.2978L128.966 43.3605C156.759 28.0407 187.266 19.3455 218.133 17.9436V26.6016C218.133 31.4989 222.104 35.4688 227 35.4688C231.896 35.4688 235.867 31.4989 235.867 26.6016V17.9436C266.733 19.3455 297.241 28.0407 325.033 43.3605L322.18 48.2978C319.73 52.5381 321.183 57.9621 325.423 60.4113C329.647 62.8515 335.079 61.4239 337.537 57.1685L340.2 52.5567C364.902 68.9424 385.658 89.9115 401.482 113.776L396.831 116.463C392.59 118.912 391.138 124.335 393.588 128.576C396.045 132.83 401.473 134.261 405.701 131.82L410.663 128.954C425.739 156.371 434.635 186.843 436.056 218.134H427.398C422.502 218.134 418.531 222.104 418.531 227.001C418.531 231.898 422.502 235.868 427.398 235.868H436.056C434.654 266.735 425.959 297.242 410.639 325.035Z" fill="#FFB800"/>
<path d="M264.214 57.3412C259.438 56.2612 254.689 59.2556 253.608 64.0324C252.526 68.8083 255.521 73.5566 260.298 74.6376C329.138 90.2207 383.063 157.146 383.063 227C383.063 231.897 387.033 235.867 391.93 235.867C396.826 235.867 400.797 231.897 400.797 227C400.797 147.024 339.431 74.3671 264.214 57.3412Z" fill="#FFB800"/>
<path d="M227.887 94.0022C153.889 93.518 93.9922 153.552 93.9922 227C93.9922 300.438 153.631 360.008 227 360.008C300.482 360.008 360.008 300.271 360.008 227C360.008 154.111 301.039 94.4801 227.887 94.0022ZM310.418 147.533L266.94 172.894C262.932 175.231 259.387 173.693 258.051 172.925C256.713 172.157 253.602 169.87 253.602 165.24V114.827C275.301 119.957 294.96 131.273 310.418 147.533ZM200.398 114.827V165.24C200.398 169.87 197.287 172.157 195.949 172.925C194.61 173.694 191.066 175.23 187.061 172.895L143.581 147.533C159.038 131.274 178.699 119.956 200.398 114.827ZM111.727 227C111.727 215.517 113.402 204.279 116.704 193.461L161.064 219.337C165.035 221.654 165.464 225.469 165.464 227.001C165.464 228.533 165.036 232.347 161.065 234.664L116.704 260.54C113.402 249.723 111.727 238.484 111.727 227ZM200.398 339.174C178.699 334.043 159.04 322.728 143.582 306.468L187.06 281.106C191.067 278.77 194.612 280.306 195.949 281.075C197.287 281.844 200.398 284.131 200.398 288.76V339.174ZM253.602 339.174V288.76C253.602 284.131 256.713 281.844 258.051 281.075C259.39 280.306 262.935 278.77 266.939 281.105L310.419 306.468C294.963 322.726 275.302 334.042 253.602 339.174ZM321.758 292.55L275.875 265.785C267.543 260.926 257.578 260.893 249.218 265.696C240.858 270.499 235.867 279.121 235.867 288.76V341.924C229.974 342.372 224.024 342.372 218.133 341.924V288.76C218.133 279.121 213.142 270.499 204.783 265.698C196.422 260.894 186.457 260.928 178.125 265.787L132.243 292.552C128.857 287.678 125.858 282.562 123.271 277.24L170.002 249.982C178.265 245.16 183.199 236.57 183.199 227.001C183.199 217.433 178.266 208.842 170 204.02L123.27 176.762C125.857 171.44 128.855 166.324 132.242 161.449L178.125 188.213C182.317 190.658 186.923 191.881 191.529 191.881C196.078 191.881 200.629 190.688 204.782 188.302C213.142 183.501 218.133 174.88 218.133 165.24V112.074C221.085 111.849 224.047 111.727 227 111.727C229.953 111.727 232.916 111.849 235.867 112.074V165.24C235.867 174.88 240.858 183.501 249.217 188.303C253.371 190.689 257.921 191.882 262.47 191.882C267.076 191.882 271.683 190.659 275.875 188.213L321.757 161.449C325.143 166.322 328.142 171.438 330.729 176.761L283.998 204.018C275.735 208.84 270.801 217.431 270.801 226.999C270.801 236.568 275.734 245.158 284 249.98L330.73 277.238C328.143 282.559 325.145 287.676 321.758 292.55ZM292.936 234.663C288.965 232.346 288.536 228.532 288.536 226.999C288.536 225.467 288.964 221.653 292.935 219.336L337.296 193.461C340.598 204.277 342.273 215.516 342.273 227C342.273 238.483 340.598 249.722 337.296 260.54L292.936 234.663Z" fill="#FFB800"/>
<path d="M227 200.398C212.332 200.398 200.398 212.332 200.398 227C200.398 241.668 212.332 253.602 227 253.602C241.668 253.602 253.602 241.668 253.602 227C253.602 212.332 241.668 200.398 227 200.398ZM227 235.867C222.111 235.867 218.133 231.889 218.133 227C218.133 222.111 222.111 218.133 227 218.133C231.889 218.133 235.867 222.111 235.867 227C235.867 231.889 231.889 235.867 227 235.867Z" fill="#FFB800"/>
</svg>
