<svg width="41" height="40" viewBox="0 0 41 40" fill="none" xmlns="http://www.w3.org/2000/svg">
<path d="M37.4674 23.4292H36.8688V18.0374C36.8688 17.1838 36.4439 16.428 35.7951 15.9688V15.2347C35.7951 14.1698 34.9288 13.3034 33.8638 13.3034H33.4169L35.127 10.794C35.7002 9.95295 35.4822 8.80225 34.6411 8.22897L23.0371 0.321152C22.6297 0.0434176 22.1386 -0.0590824 21.6539 0.0328708C21.1695 0.124668 20.7497 0.39959 20.472 0.80709L10.4563 15.5042H7.66922L8.34165 8.69717C8.34922 8.62045 8.39907 8.55397 8.4686 8.5278C9.33493 8.20116 10.0857 7.59116 10.5826 6.81022C10.6217 6.74873 10.6956 6.71358 10.772 6.72131L15.1434 7.15319C15.4569 7.18358 15.7357 6.9553 15.7667 6.64201C15.7976 6.32873 15.5688 6.04975 15.2555 6.01881L10.884 5.58694C10.3766 5.53725 9.89266 5.77108 9.62079 6.19826C9.25547 6.77248 8.70344 7.22092 8.06649 7.46108C7.58704 7.64186 7.25782 8.07248 7.20719 8.58506L6.52375 15.5041H5.79696L6.86039 4.73819C6.89868 4.35069 7.24454 4.066 7.6325 4.10483L16.4664 4.97748C16.7797 5.00772 17.0587 4.77959 17.0896 4.46631C17.1206 4.15303 16.8917 3.87404 16.5784 3.84311L7.74454 2.97045C6.73172 2.87053 5.82602 3.61311 5.72594 4.62608L4.86875 13.3034H3.40899C2.34414 13.3034 1.47774 14.1698 1.47774 15.2347V15.7355C0.606563 16.1366 0 17.0172 0 18.0374V37.4667C0 38.8636 1.13641 40 2.53336 40H34.3355C35.7324 40 36.8688 38.8636 36.8688 37.4667V32.075H37.4674C38.1739 32.075 38.7487 31.5002 38.7487 30.7937V24.7105C38.7488 24.004 38.1739 23.4292 37.4674 23.4292ZM33.8638 14.4434C34.3003 14.4433 34.6552 14.7983 34.6552 15.2348V15.5251C34.5503 15.5119 34.4438 15.5043 34.3355 15.5043H31.9171L32.64 14.4434H33.8638ZM21.414 1.44897C21.5202 1.29311 21.6808 1.18795 21.8661 1.15279C21.9104 1.14443 21.9549 1.14022 21.999 1.14022C22.1394 1.14022 22.2766 1.18225 22.3952 1.26303L33.9992 9.17084C34.3209 9.39014 34.4043 9.8303 34.1851 10.152L30.5378 15.504H29.6624L31.4506 12.8801C31.7406 12.4545 31.7646 11.913 31.5128 11.4666C31.1783 10.8737 31.0427 10.1755 31.131 9.50053C31.1966 8.99842 30.9756 8.50827 30.5544 8.22123L24.5389 4.12186C24.1176 3.83475 23.5806 3.80842 23.1373 4.05318C22.5416 4.38209 21.8421 4.51123 21.1679 4.41686C20.6679 4.3467 20.1608 4.57248 19.8751 4.99162L12.7111 15.5041H11.8358L21.414 1.44897ZM21.665 11.128C19.1829 11.128 17.1454 13.0633 16.9794 15.5041H14.0904L20.8169 5.63358C20.817 5.63358 20.817 5.63358 20.817 5.63358C20.8552 5.5774 20.9185 5.54397 20.9836 5.54397C20.9923 5.54397 21.0009 5.54459 21.0096 5.54576C21.9267 5.67405 22.8778 5.49858 23.6881 5.05115C23.7519 5.01584 23.8338 5.02092 23.8969 5.06389L29.9124 9.16334C29.9754 9.20631 30.01 9.28069 30.0006 9.35288C29.8806 10.2708 30.0651 11.2203 30.52 12.0267C30.5565 12.0915 30.552 12.1744 30.5088 12.2381L28.2831 15.504H26.3509C26.1847 13.0633 24.1473 11.128 21.665 11.128ZM25.2078 15.5042H18.1223C18.2856 13.6926 19.8117 12.268 21.665 12.268C23.5185 12.2679 25.0446 13.6926 25.2078 15.5042ZM2.61766 15.2347C2.61766 14.7983 2.97258 14.4433 3.40899 14.4433H4.75617L4.65141 15.5041H2.61766V15.2347ZM1.13992 18.0374C1.13992 17.2691 1.765 16.6441 2.53336 16.6441H34.3355C35.1039 16.6441 35.7288 17.2691 35.7288 18.0374V19.619H1.13992V18.0374ZM35.7288 37.4667C35.7288 38.235 35.1039 38.8601 34.3355 38.8601H2.53336C1.765 38.8601 1.13992 38.235 1.13992 37.4667V35.8852H4.21352C4.52836 35.8852 4.78344 35.63 4.78344 35.3152C4.78344 35.0005 4.52828 34.7453 4.21352 34.7453H1.13992V20.7589H35.7288V23.4292H30.3096H30.3095C28.602 23.4292 27.123 24.4245 26.421 25.8652C26.4187 25.8701 26.416 25.8748 26.4136 25.8796C26.4077 25.8919 26.4025 25.9046 26.3967 25.9169C26.3131 26.0945 26.2405 26.2784 26.1813 26.468C26.1812 26.4686 26.181 26.4691 26.1809 26.4696C26.0547 26.875 25.9867 27.3057 25.9867 27.7521C25.9867 30.1358 27.9259 32.075 30.3095 32.075H30.3095H35.7288V34.7453H7.86305C7.54821 34.7453 7.29313 35.0005 7.29313 35.3152C7.29313 35.63 7.54829 35.8852 7.86305 35.8852H35.7288V37.4667ZM37.6088 30.7937C37.6088 30.8716 37.5454 30.9351 37.4674 30.9351H30.3097C29.1031 30.9351 28.051 30.2602 27.5114 29.268C27.4869 29.223 27.4635 29.1772 27.441 29.1309C27.3963 29.0381 27.3559 28.9429 27.3202 28.8454C27.195 28.5043 27.1267 28.136 27.1267 27.7521C27.1267 27.3682 27.1951 26.9999 27.3202 26.6588C27.356 26.5614 27.3963 26.4662 27.441 26.3734C27.4635 26.327 27.4869 26.2812 27.5114 26.2362C28.051 25.2441 29.1031 24.5691 30.3097 24.5691H37.4674C37.5453 24.5691 37.6088 24.6326 37.6088 24.7105V30.7937Z" fill="#FFB800"/>
<path d="M38.0541 31.7995C36.4602 31.7995 35.1635 33.0962 35.1635 34.6901C35.1635 36.2839 36.4602 37.5806 38.0541 37.5806C39.6481 37.5806 40.9447 36.2839 40.9447 34.6901C40.9447 33.0962 39.6481 31.7995 38.0541 31.7995ZM38.0541 36.1557C37.2459 36.1557 36.5884 35.4982 36.5884 34.6901C36.5884 33.882 37.2459 33.2244 38.0541 33.2244C38.8623 33.2244 39.5198 33.8819 39.5198 34.6901C39.5198 35.4983 38.8623 36.1557 38.0541 36.1557Z" fill="#FFB800"/>
</svg>
