<svg width="40" height="40" viewBox="0 0 40 40" fill="none" xmlns="http://www.w3.org/2000/svg">
<path d="M39.9849 17.7786C39.9803 16.4553 38.9216 15.3176 37.4984 15.3176L37.4752 15.3175C37.3758 15.3158 37.2866 15.2443 37.2583 15.1436C36.8667 13.7473 36.3063 12.4049 35.5901 11.1456C35.5298 11.0395 35.5431 10.9045 35.6299 10.8186C35.6303 10.8181 35.6309 10.8176 35.6313 10.8171C36.0891 10.3655 36.3417 9.75541 36.3428 9.09947C36.3438 8.43572 36.0766 7.78923 35.6098 7.32556L32.5649 4.30188C32.5649 4.30181 32.5649 4.30181 32.5649 4.30181C31.6048 3.34852 30.0292 3.32149 29.073 4.30485C29.0591 4.31923 29.045 4.33306 29.0314 4.34579C28.9673 4.40595 28.8609 4.41321 28.7726 4.36368C27.5014 3.64938 26.1433 3.09251 24.7362 2.70821C24.6348 2.68055 24.5623 2.59157 24.5601 2.4918L24.5598 2.46493C24.5508 1.10399 23.4387 0 22.0786 0C22.0757 0 22.0726 0 22.0697 0L17.7661 0.0150782C17.105 0.0173438 16.4858 0.278204 16.0223 0.749611C15.5589 1.2211 15.3086 1.84485 15.3175 2.49961L15.3175 2.5243C15.3159 2.62391 15.2442 2.71336 15.1432 2.74172C13.7385 3.13579 12.3843 3.70235 11.1181 4.42556C11.0303 4.47556 10.9239 4.46907 10.8593 4.40923C10.8447 4.39587 10.8305 4.38196 10.817 4.36845C10.3631 3.90821 9.75324 3.65415 9.09964 3.65305C9.09824 3.65305 9.09691 3.65305 9.0955 3.65305C8.43581 3.65305 7.79081 3.92165 7.3255 4.39016L4.30182 7.43509C3.35565 8.38791 3.3251 9.97385 4.30479 10.9268C4.3087 10.9346 4.4594 11.0568 4.35776 11.2381C3.64635 12.5062 3.09143 13.8607 2.70838 15.2637C2.68197 15.3603 2.59268 15.4402 2.46502 15.4402C1.10103 15.4493 -0.00475029 16.5663 1.53463e-05 17.9303L0.0150154 22.2154C0.019781 23.5772 1.12174 24.6823 2.49268 24.6823H2.50166C2.50947 24.6851 2.68861 24.667 2.7419 24.8569C3.13549 26.2598 3.70112 27.6126 4.42323 28.8778C4.52448 29.0553 4.37237 29.1751 4.36838 29.1829C3.38526 30.1523 3.44846 31.7394 4.39018 32.6744L7.43503 35.698C8.39363 36.6498 9.9691 36.6796 10.9271 35.6948C11.0094 35.6098 11.1035 35.5666 11.2271 35.6359C12.4984 36.3504 13.8567 36.9074 15.2642 37.2916C15.3654 37.3193 15.4376 37.4081 15.4399 37.5076C15.4465 37.5406 15.3741 38.4903 16.1664 39.2799C16.6326 39.7445 17.2511 40 17.9089 40H17.9178L22.1965 39.985C23.5584 39.9802 24.6735 38.8684 24.6823 37.5002L24.6824 37.4762C24.684 37.3762 24.756 37.2863 24.8578 37.2577C26.2617 36.8638 27.6153 36.2976 28.881 35.5748C28.9694 35.5244 29.0764 35.531 29.1412 35.5909C30.274 36.6399 31.7393 36.5514 32.6745 35.6097L35.6981 32.5648C36.646 31.6102 36.673 30.0243 35.6952 29.0732L35.6938 29.0717C35.6074 28.9876 35.5893 28.8563 35.6482 28.7512C36.3572 27.4851 36.9093 26.1366 37.2918 24.7355C37.3194 24.6345 37.4081 24.5623 37.5092 24.5601C37.5355 24.5547 38.5132 24.6268 39.3089 23.8C39.7639 23.3273 40.0021 22.6865 39.9999 22.0304L39.9849 17.7786ZM37.4809 23.3886C36.8671 23.4025 36.3244 23.8296 36.1613 24.4269C35.7604 25.8954 35.236 27.1742 34.453 28.4797C34.1966 28.9072 34.362 29.3751 34.8781 29.9133C35.3691 30.4254 35.3565 31.2458 34.8666 31.7393L31.843 34.7841C31.4213 35.2089 30.895 35.1765 30.9029 35.1749C30.4154 35.1741 30.1699 34.9466 29.9373 34.7311C29.4943 34.321 28.8363 34.2511 28.3 34.5573C27.1176 35.2326 25.853 35.7615 24.5413 36.1296C23.9439 36.2973 23.5201 36.8438 23.5108 37.4578C23.4965 38.288 22.8695 38.8108 22.1926 38.8132L17.9136 38.8282C17.2405 38.8245 16.6299 38.334 16.6115 37.4812C16.5975 36.8672 16.1704 36.3244 15.5728 36.1612C14.2579 35.8023 12.9889 35.2819 11.8011 34.6144C11.2845 34.3241 10.599 34.3499 10.0866 34.8783C9.58527 35.3936 8.75706 35.3594 8.26074 34.8666L5.21589 31.843C4.75034 31.3807 4.64588 30.5821 5.23073 29.9776C5.66393 29.5303 5.75042 28.8392 5.44096 28.2969C4.76635 27.115 4.23784 25.8511 3.87018 24.5405C3.7108 23.9725 3.19041 23.5104 2.49502 23.5104C1.7783 23.5156 1.18931 22.9336 1.18681 22.2113L1.17181 17.9261C1.16931 17.2063 1.75283 16.6168 2.46963 16.6121C2.47065 16.6121 2.47885 16.612 2.47986 16.612C3.11369 16.6086 3.67252 16.1811 3.83877 15.5724C4.19666 14.2616 4.7151 12.9961 5.37979 11.8113C5.67893 11.2779 5.61815 10.5688 5.12174 10.0866C4.61323 9.59197 4.64331 8.75416 5.13331 8.26072L8.15699 5.21579C8.40378 4.96728 8.74574 4.82485 9.09542 4.82485H9.09761C9.43582 4.82548 9.75011 4.95556 9.98308 5.19181C10.0095 5.2186 10.0366 5.2447 10.0638 5.26985C10.5065 5.67931 11.1636 5.74884 11.6991 5.44314C12.8821 4.76751 14.1473 4.23821 15.4596 3.87001C16.0561 3.70266 16.4795 3.15696 16.4892 2.54094L16.4893 2.48969C16.4846 2.14383 16.6156 1.8175 16.8581 1.57078C17.1055 1.31914 17.4508 1.18789 17.8036 1.18664L22.0739 1.17188H22.0951C22.8119 1.17188 23.3847 1.75828 23.3878 2.47508C23.3879 2.48954 23.3881 2.50391 23.3884 2.51836C23.4022 3.13258 23.8295 3.67555 24.4274 3.83884C25.7422 4.19782 27.0109 4.71813 28.1985 5.38548C28.7277 5.68282 29.4109 5.63985 29.9136 5.12149C30.4123 4.60876 31.2397 4.63735 31.7392 5.13345V5.13337L34.7841 8.15713C35.0306 8.40181 35.1715 8.74471 35.171 9.0976C35.1705 9.4383 35.0416 9.75283 34.8084 9.98291C34.7013 10.0886 34.6047 10.2031 34.5191 10.3258C34.263 10.6929 34.2506 11.1785 34.4799 11.5629C35.2271 12.8159 35.7331 14.045 36.13 15.4601C36.2973 16.0563 36.8428 16.4795 37.4549 16.4892C38.317 16.5047 38.8109 17.1198 38.8131 17.7828L38.8281 22.0797C38.8304 22.7433 38.3382 23.3673 37.4809 23.3886Z" fill="#FFB800"/>
<path d="M20 7.93562C13.3476 7.93562 7.93552 13.3477 7.93552 20.0001C7.93552 26.6525 13.3476 32.0646 20 32.0646C26.6524 32.0646 32.0645 26.6525 32.0645 20.0001C32.0645 13.3477 26.6524 7.93562 20 7.93562ZM20 30.8927C13.9938 30.8927 9.10739 26.0063 9.10739 20.0001C9.10739 13.9939 13.9938 9.10749 20 9.10749C26.0062 9.10749 30.8926 13.9939 30.8926 20.0001C30.8926 26.0063 26.0062 30.8927 20 30.8927Z" fill="#FFB800"/>
<path d="M26.725 13.9382C26.2951 13.579 25.751 13.4091 25.1931 13.4589C24.6351 13.5091 24.1301 13.7734 23.771 14.2033L17.5299 21.6751L15.3941 19.4774C15.0037 19.0756 14.4803 18.85 13.9201 18.842C13.3603 18.8341 12.8303 19.0446 12.4286 19.435C12.0269 19.8254 11.8013 20.3489 11.7933 20.9089C11.7853 21.469 11.9959 21.9987 12.3863 22.4003L16.1439 26.2669C16.5364 26.6707 17.0846 26.9024 17.6477 26.9024C17.6736 26.9024 17.6997 26.9019 17.7267 26.901C18.3193 26.8786 18.8772 26.6047 19.2572 26.1496L26.9901 16.8921C27.7314 16.0046 27.6124 14.6795 26.725 13.9382ZM26.0907 16.141L18.3577 25.3985C18.19 25.5993 17.9439 25.7201 17.6833 25.73C17.4211 25.7391 17.1656 25.637 16.9841 25.4503L13.2266 21.5837C13.0543 21.4065 12.9614 21.1728 12.965 20.9257C12.9685 20.6786 13.068 20.4477 13.2453 20.2755C13.4193 20.1064 13.6476 20.0137 13.8898 20.0137C13.8943 20.0137 13.8989 20.0137 13.9033 20.0138C14.1504 20.0174 14.3814 20.1168 14.5536 20.2941L17.1426 22.9581C17.2583 23.0771 17.4194 23.1396 17.5849 23.1353C17.7507 23.1291 17.9061 23.0528 18.0125 22.9253L24.6704 14.9546C24.8289 14.7649 25.0517 14.6483 25.2979 14.6263C25.5442 14.6043 25.784 14.6794 25.9737 14.8377C26.3653 15.1646 26.4177 15.7493 26.0907 16.141Z" fill="#FFB800"/>
<path d="M28.5279 30.3852C26.1338 32.3535 23.1052 33.4374 20 33.4374C12.5905 33.4374 6.56243 27.4095 6.56243 20C6.56243 16.895 7.64626 13.8666 9.61432 11.4726C9.81978 11.2227 9.78377 10.8534 9.53377 10.6479C9.28377 10.4424 8.91463 10.4785 8.70908 10.7284C6.56907 13.3316 5.39056 16.6243 5.39056 20C5.39056 28.0556 11.9443 34.6093 20 34.6093C23.376 34.6093 26.669 33.4306 29.2722 31.2903C29.5222 31.0849 29.5582 30.7156 29.3526 30.4656C29.1472 30.2157 28.7778 30.1796 28.5279 30.3852Z" fill="#FFB800"/>
<path d="M20 5.39063C16.6233 5.39063 13.33 6.56978 10.7264 8.7108C10.4764 8.91634 10.4404 9.28556 10.646 9.53556C10.8514 9.78549 11.2207 9.82142 11.4707 9.61595C13.8651 7.64689 16.8942 6.56251 20 6.56251C27.4094 6.56251 33.4375 12.5906 33.4375 20C33.4375 23.1053 32.3534 26.134 30.3851 28.5281C30.1796 28.778 30.2156 29.1473 30.4655 29.3528C30.5746 29.4425 30.7064 29.4861 30.8373 29.4861C31.0066 29.4861 31.1744 29.4132 31.2903 29.2723C33.4306 26.669 34.6093 23.3761 34.6093 20C34.6093 11.9444 28.0556 5.39063 20 5.39063Z" fill="#FFB800"/>
</svg>
